<?xml version="1.0" standalone="no"?>
<!DOCTYPE svg PUBLIC "-//W3C//DTD SVG 1.1//EN" "http://www.w3.org/Graphics/SVG/1.1/DTD/svg11.dtd" >
<svg xmlns="http://www.w3.org/2000/svg" xmlns:xlink="http://www.w3.org/1999/xlink" version="1.1">
<metadata>
Created by FontForge 20170731 at Sun Aug 16 09:00:01 2020
 By Aleksey,,,
Copyright (c) 2020 by Cahya Sofyan. All rights reserved.
</metadata>
<defs>
<font id="GulfsDisplay-ExpandedItalic" horiz-adv-x="736" >
  <font-face 
    font-family="GulfsDisplay-ExpandedItalic"
    font-weight="400"
    font-style="italic"
    font-stretch="expanded"
    units-per-em="1000"
    panose-1="0 0 5 5 0 0 0 0 0 0"
    ascent="773"
    descent="-227"
    x-height="500"
    cap-height="700"
    bbox="-592 -430 1467 998"
    underline-thickness="50"
    underline-position="-150"
    unicode-range="U+0020-FB02"
  />
<missing-glyph horiz-adv-x="500" 
d="M93 -200v1000h317v-1000h-317zM167 5h166v113h-166v-113zM167 -131h166v33h-102l70 47h32v33h-166v-33h70l-70 -47v-33zM167 178h166v113h-100v-56h34v23h33v-47h-100v80h-33v-113zM167 500h166v34h-66v70h-100v-104zM167 630h166v33h-66v37h66v33h-165v-33h65v-37h-66
v-33zM167 370h100v70h66v33h-166v-33h66v-37h-66v-33zM167 313h166v100h-33v-66h-133v-34zM200 85h100v-47h-100v47zM233 570v-36h-33v36h33z" />
    <glyph glyph-name="fi" unicode="fi" horiz-adv-x="896" 
d="M35 277l-91 -8l62 231l88 -1l12 45q24 91 106 140.5t200 49.5q77 0 151 -24l-63 -172q-30 13 -65 13q-74 0 -81 -25l-8 -27l533 1l-134 -500h-259l73 272h-266l-61 -272h-272zM614 630q12 46 59.5 74t115.5 28q67 0 100 -28t20 -74q-12 -46 -60 -74t-115 -28t-100 28
t-20 74z" />
    <glyph glyph-name="fl" unicode="fl" horiz-adv-x="926" 
d="M596 700h290l-162 -467h125l-63 -233h-378l72 269l-186 8l-62 -277h-272l75 277l-91 -8l62 231l88 -1l12 45q24 91 106 140.5t200 49.5q82 0 148 -23l-60 -173q-30 13 -65 13q-74 0 -81 -25l-8 -27l196 1z" />
    <glyph glyph-name="f_f" unicode="ff" horiz-adv-x="1060" 
d="M35 277l-91 -8l62 231l88 -1l12 45q24 91 106 140.5t200 49.5q77 0 151 -24l-63 -172q-30 13 -65 13q-74 0 -81 -25l-8 -27h268l12 45q24 91 106 140.5t200 49.5q77 0 151 -24l-63 -172q-30 13 -65 13q-74 0 -81 -25l-8 -27l181 1l-61 -231l-172 8l-62 -277h-272l75 277
h-261l-62 -277h-272z" />
    <glyph glyph-name="f_f_i" unicode="ffi" horiz-adv-x="1416" 
d="M35 277l-91 -8l62 231l88 -1l12 45q24 91 106 140.5t200 49.5q77 0 151 -24l-63 -172q-30 13 -65 13q-74 0 -81 -25l-8 -27h268l12 45q24 91 106 140.5t200 49.5q77 0 151 -24l-63 -172q-30 13 -65 13q-74 0 -81 -25l-8 -27l533 1l-134 -500h-259l73 271h-266l-61 -271
h-272l75 277h-261l-62 -277h-272zM1134 630q12 46 59.5 74t115.5 28q67 0 100 -28t20 -74q-12 -46 -60 -74t-115 -28t-100 28t-20 74z" />
    <glyph glyph-name="f_f_l" unicode="ffl" horiz-adv-x="1446" 
d="M1116 700h290l-162 -467h125l-63 -233h-378l72 270l-186 7l-62 -277h-272l75 277h-261l-62 -277h-272l75 277l-91 -8l62 231l88 -1l12 45q24 91 106 140.5t200 49.5q77 0 151 -24l-63 -172q-30 13 -65 13q-74 0 -81 -25l-8 -27h268l12 45q24 91 106 140.5t200 49.5
q82 0 148 -23l-60 -173q-30 13 -65 13q-74 0 -81 -25l-8 -27l196 1z" />
    <glyph glyph-name=".notdef" horiz-adv-x="500" 
d="M93 -200v1000h317v-1000h-317zM167 5h166v113h-166v-113zM167 -131h166v33h-102l70 47h32v33h-166v-33h70l-70 -47v-33zM167 178h166v113h-100v-56h34v23h33v-47h-100v80h-33v-113zM167 500h166v34h-66v70h-100v-104zM167 630h166v33h-66v37h66v33h-165v-33h65v-37h-66
v-33zM167 370h100v70h66v33h-166v-33h66v-37h-66v-33zM167 313h166v100h-33v-66h-133v-34zM200 85h100v-47h-100v47zM233 570v-36h-33v36h33z" />
    <glyph glyph-name=".null" horiz-adv-x="0" 
 />
    <glyph glyph-name="uni000D" horiz-adv-x="333" 
 />
    <glyph glyph-name="space" unicode=" " horiz-adv-x="269" 
 />
    <glyph glyph-name="exclam" unicode="!" horiz-adv-x="373" 
d="M97 700h292l-162 -441h-205zM-54 104q15 53 59.5 84t105.5 31t84.5 -26t23.5 -57q0 -15 -5 -33q-15 -53 -59 -83q-45 -31 -106 -31t-84.5 26t-23.5 56q0 15 5 33z" />
    <glyph glyph-name="quotedbl" unicode="&#x22;" horiz-adv-x="542" 
d="M94 700h199l-103 -322h-167zM356 700h199l-103 -322h-166z" />
    <glyph glyph-name="numbersign" unicode="#" horiz-adv-x="901" 
d="M-38 289h122l50 115h-92l38 121h106l71 168h240l-71 -168h120l71 168h239l-71 -168h108l-38 -121h-122l-50 -115h85l-37 -122h-99l-72 -167h-239l72 167h-121l-71 -167h-240l72 167h-108zM323 289h120l50 115h-120z" />
    <glyph glyph-name="dollar" unicode="$" horiz-adv-x="850" 
d="M-15 340q151 -89 391 -89q64 0 94 6t35 23v1q0 6 -16 11q-13 3 -141 12q-226 17 -294 82q-35 33 -35 80q0 19 6 41q26 97 124 144.5t258 59.5l28 103h147l-28 -102q166 -11 260 -57l-79 -272q-42 26 -144 46.5t-177 20.5q-129 0 -137 -29v-3q0 -8 15.5 -13.5t46.5 -7
t71 -3t84 -4t88 -9t81 -18t63.5 -32t33.5 -42.5t7 -39q0 -19 -6 -43q-53 -200 -401 -220l-27 -102h-148l28 104q-87 8 -176.5 25.5t-136.5 37.5z" />
    <glyph glyph-name="percent" unicode="%" horiz-adv-x="1025" 
d="M22 509q24 89 96.5 145.5t159.5 56.5t121.5 -46t34.5 -96q0 -28 -9 -60q-23 -88 -96 -145t-160 -57q-86 0 -120.5 47t-34.5 97q0 27 8 58zM519 191q23 88 96 145t160 57q86 0 120.5 -47t34.5 -97q0 -27 -8 -58q-24 -89 -96 -145q-73 -57 -160 -57t-121 46.5t-34 96.5
q0 27 8 59zM88 0l582 700h185l-581 -700h-186zM658 137q14 -21 43 -21t53 20.5t34 54.5q4 13 4 24q0 17 -11 34t-40 17t-53.5 -20.5t-33.5 -54.5q-4 -14 -4 -26q0 -16 8 -28zM161 455q14 -21 43 -21q28 0 52.5 21t33.5 54q4 14 4 26q0 17 -10.5 33t-39.5 16t-53.5 -20.5
t-34.5 -54.5q-4 -13 -4 -24q0 -17 9 -30z" />
    <glyph glyph-name="ampersand" unicode="&#x26;" horiz-adv-x="978" 
d="M-66 204q13 49 55 83t92.5 49.5t111.5 19.5l3 11q-142 27 -142 121q0 20 6 42q24 90 148.5 136.5t340.5 46.5q74 0 188 -8l-65 -242q-78 5 -152 5q-190 0 -199 -35q-1 -4 -1 -7q0 -5 4.5 -11t20 -10.5t41.5 -6.5t66 -2h23l-22 -82h-57q-139 0 -151 -42q-1 -3 -1 -5
q0 -12 16.5 -21t65 -14.5t129.5 -5.5q26 0 39 2l45 168h394l-22 -82h-107l-82 -305q-49 -10 -170.5 -18t-200.5 -8q-226 0 -324.5 49.5t-98.5 127.5q0 21 6 44z" />
    <glyph glyph-name="quotesingle" unicode="'" horiz-adv-x="283" 
d="M192 378h-167l71 322h199z" />
    <glyph glyph-name="parenleft" unicode="(" horiz-adv-x="454" 
d="M2 344q41 151 149.5 261.5t265.5 166.5l51 -145q-165 -95 -215 -284q-15 -58 -15 -107q0 -110 77 -177l-127 -144q-127 57 -165.5 142.5t-38.5 158.5q0 60 18 128z" />
    <glyph glyph-name="parenright" unicode=")" horiz-adv-x="453" 
d="M116 343q15 58 15 107q0 111 -78 177l129 145q126 -57 164.5 -142t38.5 -158q0 -60 -29.5 -169.5t-138 -220t-266.5 -167.5l-50 144q164 96 215 284z" />
    <glyph glyph-name="asterisk" unicode="*" horiz-adv-x="566" 
d="M259 158h-135l58 175l-172 -98l-36 117l178 77l-136 77l99 118l119 -97l35 173h136l-59 -174l171 98l37 -118l-179 -77l137 -77l-100 -117l-118 97z" />
    <glyph glyph-name="plus" unicode="+" horiz-adv-x="695" 
d="M-34 266l43 162h228l50 186h181l-49 -186h227l-43 -162h-227l-50 -187h-182l50 187h-228z" />
    <glyph glyph-name="comma" unicode="," horiz-adv-x="361" 
d="M-61 109q15 55 62 87t108 32q62 0 85.5 -30.5t23.5 -63.5q0 -21 -7 -46q-22 -82 -85.5 -148.5t-134.5 -94.5l-46 79q32 14 65 35.5t43 37.5q-17 -5 -30 -5q-48 0 -68.5 26.5t-20.5 55.5q0 16 5 35z" />
    <glyph glyph-name="hyphen" unicode="-" horiz-adv-x="547" 
d="M448 242h-487l45 169h486z" />
    <glyph glyph-name="period" unicode="." horiz-adv-x="365" 
d="M-61 110q15 55 62.5 87t109.5 32q61 0 86 -26.5t25 -58.5q0 -16 -5 -35q-15 -55 -62 -87q-48 -32 -109 -32t-86.5 26.5t-25.5 59.5q0 16 5 34z" />
    <glyph glyph-name="slash" unicode="/" horiz-adv-x="575" 
d="M98 -2h-232l530 701h233z" />
    <glyph glyph-name="zero" unicode="0" horiz-adv-x="972" 
d="M-16 365q20 64 65 127.5t110.5 112.5t165 79.5t219.5 30.5q180 0 281 -64.5t101 -189.5q0 -62 -20 -126t-65 -127.5t-110.5 -112.5t-164.5 -79.5t-218 -30.5q-180 0 -281.5 64.5t-101.5 188.5q0 63 19 127zM308 331q0 -56 118 -56q80 0 118 28t38 67q0 56 -116 56
q-82 0 -120 -28t-38 -67z" />
    <glyph glyph-name="one" unicode="1" horiz-adv-x="632" 
d="M443 0h-323l106 394h-230l82 306h553z" />
    <glyph glyph-name="two" unicode="2" horiz-adv-x="902" 
d="M-116 0l66 248l325 84q169 45 180 81q1 2 1 4q0 12 -24 19q-31 10 -99 10q-149 0 -317 -25l69 260q156 34 395 34q165 0 265 -41t100 -115q0 -66 -64.5 -132t-195.5 -107l-171 -53l-3 -9h405l-69 -258h-863z" />
    <glyph glyph-name="three" unicode="3" horiz-adv-x="879" 
d="M-49 270q133 -26 300 -26q70 0 120 8.5t71.5 20.5t21.5 26q0 19 -36.5 28t-88.5 9q-13 0 -55.5 -1.5t-123.5 -16.5l-10 66l262 55l4 15l-378 -8l68 254h758l-67 -247l-237 -57l-3 -10q120 -1 175.5 -38.5t55.5 -96.5q0 -35 -18 -70.5t-59.5 -71t-101.5 -63t-152.5 -44.5
t-204.5 -17q-221 0 -369 29z" />
    <glyph glyph-name="four" unicode="4" horiz-adv-x="1062" 
d="M741 0h-325l34 125h-535l31 118l728 457h255l-96 -357h174l-58 -217h-174zM544 478l-207 -136h171z" />
    <glyph glyph-name="five" unicode="5" horiz-adv-x="863" 
d="M-94 19l60 252q117 -27 321 -27q83 0 130 15.5t47 35.5q0 17 -35.5 28.5t-101.5 11.5q-44 0 -116 -10t-103 -21l-111 43l98 353h752l-70 -261h-480l-15 -55q77 8 167 8q135 0 230.5 -39t95.5 -108q0 -31 -14 -63t-53 -68.5t-98.5 -64t-161 -46t-230.5 -18.5
q-162 0 -312 34z" />
    <glyph glyph-name="six" unicode="6" horiz-adv-x="926" 
d="M-39 222q0 64 18.5 128.5t65.5 131.5t117 117.5t183 83t253 32.5q150 0 258 -22l-69 -255q-91 22 -206 22q-99 0 -176 -28.5t-93 -71.5h7q57 48 229 48q294 0 294 -141q0 -36 -15.5 -73.5t-52.5 -75.5t-91.5 -67t-140 -47.5t-190.5 -18.5q-391 0 -391 237zM402 244
q63 0 98 15.5t35 38.5q0 16 -29.5 27.5t-82.5 11.5q-130 0 -130 -53q0 -40 109 -40z" />
    <glyph glyph-name="seven" unicode="7" horiz-adv-x="838" 
d="M292 0h-352l509 434h-443l72 266h795l-64 -239z" />
    <glyph glyph-name="eight" unicode="8" horiz-adv-x="936" 
d="M8 291q74 66 190 79l2 8q-60 8 -102 43.5t-42 78.5q0 24 14 51t49 57t86 54t134.5 39.5t186.5 15.5q165 0 268 -43.5t103 -116.5q0 -52 -64.5 -109.5t-163.5 -69.5l-2 -8q69 -8 121 -48t52 -92q0 -27 -14 -56.5t-50.5 -63.5t-91.5 -61t-147 -44.5t-206 -17.5
q-181 0 -289.5 47.5t-108.5 127.5q0 63 75 129zM284 281q0 -39 115 -39q64 0 101.5 14.5t37.5 40.5q0 37 -114 37q-62 0 -101 -14t-39 -39zM436 382q59 0 93 15t34 34q0 34 -104 34q-55 0 -89.5 -12.5t-34.5 -35.5q0 -35 101 -35z" />
    <glyph glyph-name="nine" unicode="9" horiz-adv-x="926" 
d="M64 262q91 -22 206 -22q99 0 176 28.5t93 71.5h-7q-57 -48 -229 -48q-293 0 -293 140q0 47 26.5 94t80.5 90.5t153.5 71t229.5 27.5q391 0 391 -237q0 -64 -18.5 -128t-65.5 -131t-117 -118t-183 -83.5t-253 -32.5q-150 0 -258 22zM317 401q0 -38 111 -38q131 0 131 52
q0 41 -110 41q-61 0 -96.5 -16.5t-35.5 -38.5z" />
    <glyph glyph-name="colon" unicode=":" horiz-adv-x="359" 
d="M-63 100q15 55 62.5 87.5t108.5 32.5t86 -27t25 -59q0 -16 -5 -35q-15 -55 -62 -87q-48 -32 -109 -32t-86 26.5t-25 58.5q0 16 5 35zM30 448q15 55 62.5 87.5t108.5 32.5t86 -27t25 -59q0 -16 -5 -35q-14 -54 -61 -86q-48 -33 -109 -33t-86.5 27t-25.5 59q0 16 5 34z" />
    <glyph glyph-name="semicolon" unicode=";" horiz-adv-x="361" 
d="M-61 106q16 55 62.5 87t107.5 32q62 0 85.5 -30.5t23.5 -64.5q0 -20 -7 -45q-23 -82 -86 -148.5t-134 -94.5l-45 79q32 14 65 36t41 37q-15 -5 -29 -5q-48 0 -68.5 26.5t-20.5 55.5q0 16 5 35zM28 441q15 55 62.5 87t108.5 32t86.5 -26.5t25.5 -59.5q0 -16 -5 -34
q-15 -55 -62 -87q-48 -32 -109 -32t-86.5 26.5t-25.5 59.5q0 16 5 34z" />
    <glyph glyph-name="less" unicode="&#x3c;" horiz-adv-x="557" 
d="M471 287l-54 -203l-470 155l57 215l554 155l-55 -203l-317 -60z" />
    <glyph glyph-name="equal" unicode="=" horiz-adv-x="695" 
d="M638 394h-637l43 162h637zM568 137h-636l44 164h636z" />
    <glyph glyph-name="greater" unicode="&#x3e;" horiz-adv-x="580" 
d="M478 239l-552 -155l54 203l317 60l-285 59l54 203l470 -155z" />
    <glyph glyph-name="question" unicode="?" horiz-adv-x="662" 
d="M16 465l56 208q9 4 40 12t98 17t135 9q161 0 234.5 -46.5t73.5 -108.5q0 -18 -6 -39q-21 -77 -87 -121t-182 -62l-32 -67h-199l3 111h21q109 0 155 17.5t55 52.5q1 6 1 11q0 19 -23 34t-73 15q-58 0 -123.5 -10t-102 -19.5t-44.5 -13.5zM70 104q14 53 59 84.5t106 31.5
t84 -26t23 -56q0 -16 -5 -34q-15 -54 -59.5 -84.5t-104.5 -30.5q-60 1 -84 26.5t-24 56.5q0 15 5 32z" />
    <glyph glyph-name="at" unicode="@" horiz-adv-x="1049" 
d="M-41 229q70 203 245.5 322t398.5 119h4q222 0 298 -87.5t76 -179.5q0 -65 -28 -144q-82 -244 -308 -244q-143 0 -162 80q-36 -34 -86 -56.5t-100 -22.5q-96 0 -126 43t-30 85q0 36 15 80q37 107 123 174t186 67q46 0 78.5 -21.5t42.5 -55.5l26 56h195l-96 -246
q-7 -21 -9.5 -33t-2.5 -22q0 -5 1 -14.5t13 -17t35 -7.5q78 0 127 156q23 66 23 120q0 75 -61 146.5t-256 71.5h-4q-194 0 -337 -98.5t-203 -270.5q-24 -70 -24 -126q0 -78 61.5 -151t256.5 -73q77 0 156.5 14.5t131.5 36.5l-23 -77q-119 -45 -291 -45q-224 0 -299.5 87.5
t-75.5 182.5q0 68 29 151zM357 174q16 -20 52 -20q38 0 76.5 30t52.5 69q5 13 5 23q0 17 -16 33t-52 16q-38 0 -74 -29.5t-49 -69.5q-5 -14 -5 -25q0 -16 10 -27z" />
    <glyph glyph-name="A" unicode="A" horiz-adv-x="972" 
d="M374 700h333l143 -700h-398l10 138h-145l-64 -138h-399zM460 223l14 197h-18l-93 -197h97z" />
    <glyph glyph-name="B" unicode="B" horiz-adv-x="909" 
d="M-106 0l188 700h533q122 0 189.5 -35t67.5 -99q0 -93 -84.5 -144.5t-207.5 -51.5l-5 -19q244 0 244 -124q0 -108 -98 -167.5t-243 -59.5h-584zM471 261q34 0 53 12t19 31q0 27 -53 27h-226l-18 -70h225zM277 379h214q31 0 50 9.5t19 26.5q0 24 -54 24h-212z" />
    <glyph glyph-name="C" unicode="C" horiz-adv-x="899" 
d="M-18 376q21 66 69 128t118.5 108.5t178 74.5t239.5 28q172 0 317 -41l-103 -312q-42 25 -119 42.5t-156 17.5q-132 0 -199.5 -18.5t-67.5 -63.5q0 -36 64 -49t191 -13q85 0 170 18t143 44l-84 -318q-158 -37 -353 -37q-203 0 -315.5 62.5t-112.5 193.5q0 69 20 135z" />
    <glyph glyph-name="D" unicode="D" horiz-adv-x="922" 
d="M82 700h416q180 0 280 -65t100 -185q0 -60 -19.5 -121t-63.5 -120.5t-108 -105.5t-161.5 -74.5t-215.5 -28.5h-416zM415 288q73 0 117 19t44 54q0 52 -128 52h-159l-33 -125h159z" />
    <glyph glyph-name="E" unicode="E" horiz-adv-x="845" 
d="M777 426l-486 10l-12 -47l372 10l-25 -92l-367 10l-14 -51l523 26l-78 -292h-796l188 700h769z" />
    <glyph glyph-name="F" unicode="F" horiz-adv-x="811" 
d="M212 0h-318l188 700h763l-81 -302l-476 26l-16 -59l389 10l-36 -138l-383 18z" />
    <glyph glyph-name="G" unicode="G" horiz-adv-x="1018" 
d="M127 576q167 139 442 139q184 0 329 -27l-101 -268q-133 23 -287 23q-119 0 -187.5 -28.5t-68.5 -81.5q0 -71 164 -71q61 0 103 13t47 31l-211 3l26 98h608l-32 -116h-54l-74 -291h-286l136 285h-21q-68 -164 -162.5 -232t-227.5 -68q-149 0 -229.5 62.5t-80.5 179.5
q0 209 167 349z" />
    <glyph glyph-name="H" unicode="H" horiz-adv-x="927" 
d="M82 700h330l-113 -257h299l26 257h329l-188 -700h-329l115 267h-299l-28 -267h-330z" />
    <glyph glyph-name="I" unicode="I" horiz-adv-x="783" 
d="M-6 402l80 298h743l-80 -298l-235 18l-36 -139l243 17l-80 -298h-743l80 298l235 -17l38 139z" />
    <glyph glyph-name="J" unicode="J" horiz-adv-x="805" 
d="M-16 327q20 -10 81.5 -21t106.5 -11q204 0 216 85l5 30l-379 -14l81 304h744l-81 -300l-83 4l-14 -101q-15 -151 -150 -234.5t-334 -83.5q-177 0 -285 37z" />
    <glyph glyph-name="K" unicode="K" horiz-adv-x="893" 
d="M82 700h310l-124 -341h16l183 341h468l-566 -331l8 -17q102 77 189 77q154 0 185 -82t31 -136q0 -92 -48 -211h-351q44 85 57.5 137t13.5 81q0 27 -12.5 61t-71.5 34q-60 0 -97 -44.5t-41 -107.5l-14 -161h-324z" />
    <glyph glyph-name="L" unicode="L" horiz-adv-x="805" 
d="M251 297l486 18l-84 -315h-759l188 700h305z" />
    <glyph glyph-name="M" unicode="M" horiz-adv-x="1099" 
d="M151 700h365l-27 -392h18l184 392h364l-115 -700h-373l157 386l-19 3l-209 -331h-130l-32 331l-20 -3l-51 -386h-372z" />
    <glyph glyph-name="N" unicode="N" horiz-adv-x="951" 
d="M82 700h261l260 -314l19 6l17 308h338l-188 -700h-255l-255 360l-17 -6l-15 -354h-353z" />
    <glyph glyph-name="O" unicode="O" horiz-adv-x="976" 
d="M-17 370q21 63 67 125.5t111.5 111t165.5 78.5t219 30q181 0 284 -67.5t103 -192.5q0 -50 -15 -102.5t-44 -105.5t-77.5 -100t-111 -83.5t-149 -57.5t-186.5 -21q-181 0 -284 68t-103 193q0 61 20 124zM323 332q54 -38 120.5 -61.5t107.5 -23.5q34 0 54 14.5t20 36.5
q0 34 -53.5 71.5t-119 60.5t-106.5 23q-34 0 -55.5 -14.5t-21.5 -36.5q0 -33 54 -70z" />
    <glyph glyph-name="P" unicode="P" horiz-adv-x="888" 
d="M82 700h489q142 -1 220.5 -47t78.5 -138q0 -100 -60.5 -175t-159 -113t-217.5 -38h-204l-27 -190l-308 1zM267 330h198q78 0 89 41q1 3 1 6q0 14 -17.5 22t-51.5 8h-198z" />
    <glyph glyph-name="Q" unicode="Q" horiz-adv-x="974" 
d="M-22 349q15 52 44 105t77.5 99.5t111 83t149 57.5t186.5 21q181 0 284 -67.5t103 -192.5q0 -70 -28 -142t-82 -140t-148 -117.5t-212 -63.5v-20l392 76l-51 -245h-495l33 183q-177 2 -278 69.5t-101 190.5q0 50 15 103zM323 332q54 -38 120.5 -61.5t107.5 -23.5
q35 0 55 15t20 38q0 33 -54 70t-120 60t-106 23q-34 0 -55.5 -14.5t-21.5 -36.5q0 -33 54 -70z" />
    <glyph glyph-name="R" unicode="R" horiz-adv-x="906" 
d="M-106 0l188 700h489q150 -1 230 -36.5t80 -117.5q0 -241 -412 -241l-5 -17h87q150 0 191 -57.5t42 -110.5q-1 -53 -28 -120h-355q28 52 43 95.5t15.5 62.5t0.5 21q0 34 -21.5 54t-66.5 20h-124l-47 -253h-307zM474 343q37 0 59.5 10t22.5 28q0 17 -17.5 23t-54.5 6h-196
l-17 -67h203z" />
    <glyph glyph-name="S" unicode="S" horiz-adv-x="909" 
d="M-14 374q53 -58 159.5 -90t247.5 -32q63 0 99 9.5t36 24.5q0 17 -52.5 23t-127 9.5t-149.5 13t-127.5 43t-52.5 89.5q0 68 43 119t115.5 78.5t154.5 40.5t173 13q93 0 212 -18.5t182 -47.5l-117 -282q-59 38 -149 60.5t-187 22.5q-145 0 -145 -30q0 -16 38 -23.5
t95.5 -8.5t124.5 -6.5t124.5 -16.5t95.5 -41t38 -76q0 -67 -42.5 -119t-113 -82.5t-155 -46t-176.5 -15.5q-94 0 -229 20t-200 47z" />
    <glyph glyph-name="T" unicode="T" horiz-adv-x="812" 
d="M847 700l-81 -304l-260 10l-90 -406h-289l129 406l-266 -10l83 304h774z" />
    <glyph glyph-name="U" unicode="U" horiz-adv-x="898" 
d="M-24 312l104 388h306l-92 -259q-12 -31 -12 -59q0 -40 28.5 -63.5t83.5 -23.5q74 0 120.5 40.5t58.5 105.5l47 259h306l-104 -388q-41 -154 -175.5 -240.5t-335.5 -86.5q-169 0 -258.5 61t-89.5 173q0 45 13 93z" />
    <glyph glyph-name="V" unicode="V" horiz-adv-x="972" 
d="M433 700l-4 -383h18l201 383h390l-519 -700h-333l-144 700h391z" />
    <glyph glyph-name="W" unicode="W" horiz-adv-x="1167" 
d="M54 700h378l-115 -418l16 -2l204 379h178v-379l18 2l110 418h378l-358 -700h-342l49 415h-18l-174 -415h-342z" />
    <glyph glyph-name="X" unicode="X" horiz-adv-x="1008" 
d="M290 360l-215 340h434l-26 -245h19l104 245h435l-399 -340l231 -360h-448l27 269h-19l-120 -269h-446z" />
    <glyph glyph-name="Y" unicode="Y" horiz-adv-x="937" 
d="M56 700h392l-8 -272h19l137 272h393l-441 -434l-51 -266h-324l92 266z" />
    <glyph glyph-name="Z" unicode="Z" horiz-adv-x="878" 
d="M393 295v-17l415 36l-84 -314h-838l59 219l430 178v17l-371 -37l86 323h787l-57 -213z" />
    <glyph glyph-name="bracketleft" unicode="[" horiz-adv-x="423" 
d="M261 -37h-363l198 737h363l-49 -178h-123l-102 -380h123z" />
    <glyph glyph-name="backslash" unicode="\" horiz-adv-x="576" 
d="M442 0h-232l-155 700h232z" />
    <glyph glyph-name="bracketright" unicode="]" horiz-adv-x="421" 
d="M236 -37h-363l48 179h124l101 380h-123l48 178h363z" />
    <glyph glyph-name="asciicircum" unicode="^" horiz-adv-x="746" 
d="M303 700h262l69 -463h-203l-47 279l-197 -279h-203z" />
    <glyph glyph-name="underscore" unicode="_" horiz-adv-x="616" 
d="M439 -172h-622l44 163h622z" />
    <glyph glyph-name="a" unicode="a" horiz-adv-x="779" 
d="M23 414q91 101 221 101q90 0 146 -47.5t56 -114.5q0 -10 -1 -20h15l9 167h289l-135 -500h-280l69 153h-15q-37 -79 -108 -123.5t-155 -44.5q-90 0 -146.5 55t-56.5 141q0 132 92 233zM192 291q0 -30 72.5 -64t122.5 -34q37 0 37 28q0 32 -71.5 64t-124.5 32
q-36 0 -36 -26z" />
    <glyph glyph-name="b" unicode="b" horiz-adv-x="780" 
d="M-112 0l188 700h292l-139 -367h15q38 86 109.5 134t157.5 48q94 0 149 -50t55 -133q0 -136 -89 -241.5t-217 -105.5q-90 0 -151 46t-61 111v11h-15l-14 -153h-280zM290 201q72 -34 123 -34q37 0 37 28q0 29 -72.5 62.5t-123.5 33.5q-37 0 -37 -26q0 -30 73 -64z" />
    <glyph glyph-name="c" unicode="c" horiz-adv-x="637" 
d="M-51 269q15 45 49 89.5t83 79t123.5 56t164.5 21.5q133 0 232 -23l-79 -231q-80 26 -165 26t-123.5 -8.5t-38.5 -29.5q0 -19 37 -25.5t117 -6.5q111 0 206 38l-63 -238q-110 -32 -267 -32q-134 0 -212 51.5t-78 143.5q0 44 14 89z" />
    <glyph glyph-name="d" unicode="d" horiz-adv-x="779" 
d="M23 416q91 99 221 99q90 0 146 -47.5t56 -114.5q0 -10 -1 -20h15l60 367h291l-188 -700h-280l69 153h-15q-37 -79 -108 -123.5t-155 -44.5q-90 0 -146.5 55t-56.5 141q0 135 92 235zM192 291q0 -30 72.5 -64t122.5 -34q37 0 37 28q0 30 -72.5 63t-123.5 33q-36 0 -36 -26
z" />
    <glyph glyph-name="e" unicode="e" horiz-adv-x="701" 
d="M-62 200q3 59 30.5 113.5t77.5 100.5t131 73.5t182 27.5q139 0 207 -53t68 -135q0 -9 -1 -17q-2 -52 -24 -82h-429v-3q0 -9 17.5 -18.5t54.5 -15t84 -5.5q141 0 242 35l-51 -195q-121 -41 -283 -41q-154 0 -230.5 54t-76.5 145q0 8 1 16zM192 266h207v6q0 23 -23 37.5
t-65 14.5q-87 0 -119 -58z" />
    <glyph glyph-name="f" unicode="f" horiz-adv-x="540" 
d="M-56 269l62 231l88 -1l12 45q24 91 106 140.5t200 49.5q77 0 151 -24l-62 -170q-33 13 -66 13q-74 0 -83 -33l-6 -21l182 1l-62 -231l-172 8l-62 -277h-272l75 277z" />
    <glyph glyph-name="g" unicode="g" horiz-adv-x="779" 
d="M19 415q85 100 209 100q95 0 156.5 -48t61.5 -115q0 -9 -1 -19h15l9 167h289l-109 -405q-38 -147 -162.5 -228.5t-368.5 -81.5q-41 0 -165 13l43 210q72 -22 171 -22q71 0 136.5 35t92.5 95l16 37h-15q-69 -144 -251 -144q-96 0 -154 47t-58 132q0 126 85 227zM265 227
q72 -34 122 -34q37 0 37 28q0 30 -72.5 63t-123.5 33q-36 0 -36 -26q0 -30 73 -64z" />
    <glyph glyph-name="h" unicode="h" horiz-adv-x="728" 
d="M76 700h292l-136 -380h13q41 89 109 142t148 53q85 0 126.5 -35t41.5 -97q0 -32 -13 -82l-81 -301h-277l66 166q14 31 14 54q0 56 -64 56q-44 0 -80.5 -31t-46.5 -79l-32 -166h-268z" />
    <glyph glyph-name="i" unicode="i" horiz-adv-x="376" 
d="M-57 267l63 233h354l-134 -500h-260l71 267h-94zM94 630q12 46 59.5 74t115.5 28q67 0 95.5 -23.5t28.5 -53.5q0 -12 -4 -25q-12 -46 -60 -74t-115 -28t-95.5 24t-28.5 53q0 12 4 25z" />
    <glyph glyph-name="j" unicode="j" horiz-adv-x="407" 
d="M-153 -22q39 -12 66 -12q62 0 80 63l64 238h-110l62 233h370l-133 -497q-27 -100 -100.5 -158t-200.5 -58q-91 0 -162 21zM133 630q12 47 59.5 74.5t114.5 27.5q68 0 96.5 -23.5t28.5 -53.5q0 -12 -4 -25q-12 -46 -60 -74t-115 -28t-95.5 24t-28.5 53q0 12 4 25z" />
    <glyph glyph-name="k" unicode="k" horiz-adv-x="760" 
d="M-112 0l188 700h290l-163 -437h10l137 237h400l-466 -235l4 -11q79 55 160 55q128 0 159.5 -66t31.5 -129q0 -52 -15 -114h-294q16 41 24 77.5t8 69.5q0 2 -0.5 20.5t-19 38.5t-53.5 20h-3q-42 -1 -70 -32t-33 -80l-13 -114h-282z" />
    <glyph glyph-name="l" unicode="l" horiz-adv-x="406" 
d="M204 233h125l-63 -233h-378l188 700h290z" />
    <glyph glyph-name="m" unicode="m" horiz-adv-x="1097" 
d="M22 500h267l-63 -180h12q39 89 106 142t143 53q149 0 149 -118q0 -30 -13 -77h12q39 88 108.5 141.5t146.5 53.5q151 0 151 -121q0 -35 -15 -93l-81 -301h-269l69 172q13 32 13 55q0 49 -57 49q-42 0 -73 -29t-44 -81l-41 -166h-269l68 172q13 34 13 56q0 48 -57 48
q-42 0 -74 -29t-42 -81l-32 -166h-262z" />
    <glyph glyph-name="n" unicode="n" 
d="M-112 0l134 500h281l-63 -180h13q40 89 108.5 142t146.5 53q86 0 127.5 -35t41.5 -98q0 -34 -12 -81l-81 -301h-276l68 172q13 31 13 50q0 25 -17.5 39.5t-49.5 14.5q-43 0 -79.5 -30t-46.5 -80l-32 -166h-276z" />
    <glyph glyph-name="o" unicode="o" horiz-adv-x="734" 
d="M-5 352q62 78 161.5 120.5t213.5 42.5q140 0 218 -51t78 -143q0 -96 -61.5 -174t-161 -120t-215.5 -42q-139 0 -216.5 51t-77.5 141q0 96 61 175zM259 225q72 -36 115 -36q39 0 39 24q0 29 -70.5 64t-116.5 35q-39 0 -39 -24q0 -27 72 -63z" />
    <glyph glyph-name="p" unicode="p" horiz-adv-x="779" 
d="M22 500h280l-68 -153h14q37 78 111.5 123t159.5 45q88 0 141.5 -51.5t53.5 -131.5q0 -84 -42.5 -164t-117.5 -131.5t-161 -51.5q-89 0 -141.5 47.5t-52.5 113.5q0 10 1 21h-14l-60 -367h-292zM290 205q72 -34 123 -34q37 0 37 28q0 31 -72 63.5t-124 32.5q-37 0 -37 -26
q0 -30 73 -64z" />
    <glyph glyph-name="q" unicode="q" horiz-adv-x="779" 
d="M-27 332q43 80 118 131.5t161 51.5q87 0 142 -45.5t55 -112.5v-10h14l14 153h280l-188 -700h-291l127 343h-15q-37 -75 -107.5 -116.5t-156.5 -41.5q-88 0 -141.5 51.5t-53.5 131.5q0 84 42 164zM265 233q72 -34 122 -34q37 0 37 28q0 30 -72.5 63t-123.5 33
q-36 0 -36 -26q0 -30 73 -64z" />
    <glyph glyph-name="r" unicode="r" horiz-adv-x="609" 
d="M22 500h267l-63 -180h12q39 88 109.5 141.5t148.5 53.5q65 0 99 -26l-93 -284q-12 29 -46.5 50t-75.5 21q-87 0 -142 -42t-65 -100l-24 -134h-261z" />
    <glyph glyph-name="s" unicode="s" horiz-adv-x="647" 
d="M-60 247q55 -24 128.5 -38.5t130.5 -14.5q61 0 87.5 4t26.5 18q0 10 -35.5 14t-86 7t-101 10.5t-86 31.5t-35.5 64q0 59 56.5 99t136 56.5t171.5 16.5q131 0 242 -31l-54 -209q-33 19 -91.5 32t-123.5 13q-102 0 -102 -20q0 -8 35.5 -11.5t86 -8t100.5 -14t85.5 -35
t35.5 -64.5q0 -47 -34 -83.5t-90.5 -57.5t-121.5 -31t-134 -10q-59 0 -147.5 10t-140.5 23z" />
    <glyph glyph-name="t" unicode="t" horiz-adv-x="545" 
d="M-56 269l61 231q202 0 253 184h155l-49 -184h169l-62 -231h-169l-3 -13q-1 -5 -1 -9q0 -13 15 -21.5t52 -8.5q35 0 91 17l-42 -213q-99 -36 -199 -36q-211 0 -211 121q0 18 8 54l30 109h-98z" />
    <glyph glyph-name="u" unicode="u" 
d="M-63 199l81 301h277l-69 -172q-14 -35 -14 -53q0 -51 68 -51q44 0 81 30t46 80l31 166h276l-134 -500h-281l63 180h-13q-40 -89 -108.5 -142t-146.5 -53q-86 0 -128 35t-42 98q0 32 13 81z" />
    <glyph glyph-name="v" unicode="v" horiz-adv-x="822" 
d="M360 500l-32 -280h17l113 280h362l-358 -500h-370l-90 500h358z" />
    <glyph glyph-name="w" unicode="w" horiz-adv-x="1067" 
d="M6 500h385l-122 -285l17 -1l180 262h123l37 -262l20 1l30 285h385l-236 -500h-351l5 273h-13l-141 -273h-351z" />
    <glyph glyph-name="x" unicode="x" horiz-adv-x="822" 
d="M157 256l-138 244h361l-30 -201h17l73 201h365l-268 -244l147 -256h-367l29 224h-16l-97 -224h-363z" />
    <glyph glyph-name="y" unicode="y" 
d="M-93 -202l43 210q72 -22 171 -22q73 0 135.5 36t85.5 103l20 55h-13q-40 -88 -95 -128.5t-135 -40.5q-92 0 -140 36t-48 100q0 28 11 70l76 283h277l-70 -172q-13 -32 -13 -53q0 -51 68 -51q45 0 82.5 30t44.5 80l24 166h283l-111 -405q-19 -71 -55.5 -124.5t-98 -97
t-156.5 -66t-221 -22.5q-41 0 -165 13z" />
    <glyph glyph-name="z" unicode="z" horiz-adv-x="677" 
d="M582 317l-299 -97h305l-59 -220h-648l50 184l296 97h-271l59 219h616z" />
    <glyph glyph-name="braceleft" unicode="{" horiz-adv-x="450" 
d="M-73 216l37 139q59 0 95 19.5t51 74.5l18 66q27 104 107.5 144.5t251.5 40.5l-46 -168q-61 0 -94 -20t-46 -69l-14 -53q-10 -39 -43.5 -68.5t-74.5 -30.5l-4 -11q41 -1 55.5 -25t14.5 -47q0 -13 -4 -27l-14 -53q-5 -18 -5 -33q0 -24 18.5 -40t78.5 -16l-45 -168
q-171 0 -220 34t-49 90q0 27 9 61l19 66q5 19 5 35q0 27 -21 43t-80 16z" />
    <glyph glyph-name="bar" unicode="|" horiz-adv-x="321" 
d="M108 -97h-215l214 797h215z" />
    <glyph glyph-name="braceright" unicode="}" horiz-adv-x="450" 
d="M-154 -129l45 168q61 0 94 19.5t47 69.5l14 53q10 39 43.5 68.5t74.5 30.5l4 11q-41 1 -55.5 25t-14.5 47q0 13 4 27l14 53q5 18 5 32q0 24 -18 40.5t-79 16.5l45 168q170 0 219 -34t49 -90q0 -27 -9 -61l-18 -66q-5 -20 -5 -35q0 -27 21 -43t80 -16l-37 -139
q-59 0 -95 -19.5t-51 -74.5l-18 -66q-28 -104 -108 -144.5t-251 -40.5z" />
    <glyph glyph-name="asciitilde" unicode="~" horiz-adv-x="617" 
d="M-25 359q76 73 179 73q48 0 112.5 -19.5t97.5 -19.5q65 0 115 41l46 -159q-77 -75 -177 -75q-47 0 -113.5 19.5t-96.5 19.5q-56 0 -117 -41z" />
    <glyph glyph-name="exclamdown" unicode="&#xa1;" horiz-adv-x="373" 
d="M17 235l204 1l-78 -433h-285zM26 399q14 54 59 84.5t105 30.5q61 0 84.5 -25.5t23.5 -55.5q0 -15 -9.5 -50.5t-54.5 -66.5t-106 -31q-60 0 -83.5 25t-23.5 55q0 16 5 34z" />
    <glyph glyph-name="cent" unicode="&#xa2;" horiz-adv-x="675" 
d="M-21 347q29 108 122.5 174.5t249.5 81.5l26 97h144l-25 -92q114 -6 161 -19l-56 -202q-27 8 -83 15t-102 7q-175 0 -192 -61q-1 -5 -1 -9q0 -24 39 -38.5t124 -14.5q55 0 121.5 7.5t91.5 14.5l-54 -201q-47 -14 -188 -20l-24 -87h-144l24 92q-147 15 -195.5 70t-48.5 118
q0 31 10 67z" />
    <glyph glyph-name="sterling" unicode="&#xa3;" horiz-adv-x="837" 
d="M-19 244q37 1 70 13t40 39l5 19h-135l23 84h134l33 123q24 91 143 142t294 51q132 0 264 -33l-65 -241q-3 1 -36 6.5t-98.5 11.5t-127.5 6q-122 0 -133 -44l-7 -22h335l-22 -84h-335l-2 -9q-11 -36 -56 -49l-2 -6h455l-67 -251h-775z" />
    <glyph glyph-name="currency" unicode="&#xa4;" horiz-adv-x="815" 
d="M23 256q-4 18 -4 38q0 32 13 81.5t55 102.5l-70 56l108 122l97 -75q96 45 221 45q119 0 194 -43l134 73l43 -122l-94 -54q6 -23 6 -48q0 -33 -10 -69q-17 -63 -55 -110l64 -52l-107 -121l-88 69q-99 -47 -228 -47q-130 0 -203 48l-129 -70l-42 121zM269 291
q26 -27 77 -27q53 0 92.5 27t51.5 72q4 16 4 29q0 26 -21 49t-73 23h-4q-48 0 -87.5 -27.5t-52.5 -73.5q-4 -15 -4 -28q0 -26 17 -44z" />
    <glyph glyph-name="yen" unicode="&#xa5;" horiz-adv-x="929" 
d="M16 100l22 81h213l11 40h-213l22 82h163l-178 397h280l114 -255l250 255h281l-392 -397h163l-22 -82h-213l-10 -40h212l-22 -81h-212l-27 -100h-256l27 100h-213z" />
    <glyph glyph-name="brokenbar" unicode="&#xa6;" horiz-adv-x="303" 
d="M233 437h-197l82 306h197zM104 -45h-197l84 312h196z" />
    <glyph glyph-name="section" unicode="&#xa7;" horiz-adv-x="755" 
d="M-31 55q80 -37 219 -37q46 0 86.5 7t43.5 20q0 2 1 4q-1 13 -25 20q-16 5 -86 15q-129 10 -185.5 46t-56.5 90q0 19 6 41q21 79 100 131q-35 33 -35 84q0 23 7 49q23 86 128.5 136t252.5 50q68 0 132 -8t93.5 -15t35.5 -10l-44 -160q-77 43 -215 43q-46 0 -86 -7t-44 -20
q-1 -2 -1 -4q0 -12 21.5 -18t82.5 -13h4q132 -11 189.5 -47.5t57.5 -92.5q0 -18 -6 -40q-21 -76 -98 -131q32 -33 32 -82q0 -24 -7 -51q-23 -86 -129 -137t-253 -51q-53 0 -116.5 6t-103.5 12.5t-45 9.5zM221 263q23 -11 95 -17q88 9 97 38q1 4 1 7q0 16 -25.5 26.5
t-88.5 15.5q-89 -7 -97 -38q-1 -4 -1 -7q0 -16 19 -25z" />
    <glyph glyph-name="copyright" unicode="&#xa9;" horiz-adv-x="863" 
d="M-11 347q42 159 179 262.5t322 103.5t251 -85t66 -176q0 -48 -15 -103q-42 -160 -178 -263q-137 -103 -322 -103t-251 85t-66 176q0 48 14 103zM101 141q62 -82 212 -82q152 0 258.5 82.5t128.5 166.5t22 123q0 71 -51 138.5t-201 67.5q-151 0 -257.5 -82.5
t-140.5 -207.5q-11 -43 -11 -82q0 -71 40 -124zM161 351q24 91 107.5 146t204.5 55q33 0 76.5 -5.5t56.5 -13.5l-30 -115q-10 10 -46 17.5t-62 7.5q-68 0 -116.5 -25t-59.5 -65q-3 -11 -3 -21q0 -28 29.5 -49.5t91.5 -21.5q98 0 142 29l-31 -117q-19 -9 -70 -14.5t-88 -5.5
q-120 0 -165 44.5t-45 98.5q0 26 8 55z" />
    <glyph glyph-name="guillemotleft" unicode="&#xab;" horiz-adv-x="703" 
d="M262 326l238 250h199l-242 -250l108 -250h-199zM216 576h199l-242 -250l108 -250h-199l-104 250z" />
    <glyph glyph-name="logicalnot" unicode="&#xac;" horiz-adv-x="604" 
d="M489 179h-191l33 121h-354l44 167h545z" />
    <glyph glyph-name="uni00AD" unicode="&#xad;" horiz-adv-x="604" 
d="M521 300h-544l44 167h545z" />
    <glyph glyph-name="registered" unicode="&#xae;" horiz-adv-x="899" 
d="M-11 347q42 159 183.5 262.5t335.5 103.5q193 0 264 -85.5t71 -179.5q0 -46 -14 -99q-43 -160 -184 -263t-335 -103q-193 0 -264 85.5t-71 179.5q0 46 14 99zM107 141q66 -82 224 -82q159 0 269 82.5t143 207.5q12 43 12 80q0 73 -54.5 140.5t-212.5 67.5
q-159 0 -269 -82.5t-133 -166t-23 -121.5q0 -73 44 -126zM269 554h239q87 0 121.5 -29t34.5 -69q0 -17 -6 -38q-23 -81 -111 -115l58 -135h-157l-37 114h-79l-31 -114h-135zM355 369h100q55 0 66 42q2 7 2 12q0 29 -45 29h-100z" />
    <glyph glyph-name="degree" unicode="&#xb0;" horiz-adv-x="397" 
d="M30 537q19 74 81 120t142 46t110.5 -38t30.5 -81q0 -22 -6 -47q-20 -74 -82 -119.5t-141 -45.5q-80 0 -110.5 38t-30.5 81q0 21 6 46zM150 492q14 -17 42 -17t51.5 17t30.5 45q3 11 3 20q0 15 -11.5 29.5t-39.5 14.5t-51.5 -17.5t-31.5 -46.5q-3 -10 -3 -18q0 -16 10 -27
z" />
    <glyph glyph-name="plusminus" unicode="&#xb1;" horiz-adv-x="661" 
d="M34 499h213l39 148h182l-40 -148h196l-44 -162h-196l-40 -149h-181l40 149h-212zM-104 4l36 133h603l-36 -133h-603z" />
    <glyph glyph-name="paragraph" unicode="&#xb6;" horiz-adv-x="675" 
d="M1 444q33 125 139.5 192.5t261.5 67.5h312l-189 -703h-208l49 184h-94q-154 0 -217.5 57.5t-63.5 131.5q0 32 10 70z" />
    <glyph glyph-name="periodcentered" unicode="&#xb7;" horiz-adv-x="367" 
d="M-1 328q15 55 64.5 92t108.5 37q60 0 84.5 -31t24.5 -65q0 -16 -5 -34q-15 -56 -65 -93.5t-109 -37.5q-60 0 -84 31t-24 64q0 18 5 37z" />
    <glyph glyph-name="guillemotright" unicode="&#xbb;" horiz-adv-x="703" 
d="M153 326l-109 250h199l105 -250l-239 -250h-199zM438 326l-109 250h198l105 -250l-239 -250h-199z" />
    <glyph glyph-name="questiondown" unicode="&#xbf;" horiz-adv-x="662" 
d="M-111 -13q20 77 86 121.5t184 62.5l30 66h199l-3 -111h-34q-99 0 -143 -18t-53 -52q-1 -5 -1 -10q0 -19 23 -34t74 -15q58 0 123.5 10t100 19t44.5 13l-56 -207q-9 -4 -40 -12t-98 -17.5t-135 -9.5q-160 0 -233.5 46.5t-73.5 108.5q0 18 6 39zM199 400q14 54 58 84.5
t102 30.5q2 0 33.5 -0.5t54.5 -25.5t23 -54q0 -16 -5 -35q-14 -53 -58 -84q-45 -31 -106 -31t-84 25.5t-23 55.5q0 16 5 34z" />
    <glyph glyph-name="Agrave" unicode="&#xc0;" horiz-adv-x="972" 
d="M-146 0l520 700h333l143 -700h-398l10 138h-145l-64 -138h-399zM317 905h260l73 -152h-161zM460 223l14 197h-18l-93 -197h97z" />
    <glyph glyph-name="Aacute" unicode="&#xc1;" horiz-adv-x="972" 
d="M-146 0l520 700h333l143 -700h-398l10 138h-145l-64 -138h-399zM465 753l155 152h260l-254 -152h-161zM363 223h97l14 197h-18z" />
    <glyph glyph-name="Acircumflex" unicode="&#xc2;" horiz-adv-x="972" 
d="M374 700h333l143 -700h-398l10 138h-145l-64 -138h-399zM288 752l187 152h242l105 -152h-203l-46 64l-80 -64h-205zM460 223l14 197h-18l-93 -197h97z" />
    <glyph glyph-name="Atilde" unicode="&#xc3;" horiz-adv-x="972" 
d="M374 700h333l143 -700h-398l10 138h-145l-64 -138h-399zM338 788q21 68 67.5 106t103.5 38q42 0 92 -27q38 -21 61 -21q21 0 34 10t23 40l104 -18q-45 -145 -170 -145q-43 0 -99 29q-37 19 -57 19q-36 0 -55 -52zM363 223h97l14 197h-18z" />
    <glyph glyph-name="Adieresis" unicode="&#xc4;" horiz-adv-x="972" 
d="M-146 0l520 700h333l143 -700h-398l10 138h-145l-64 -138h-399zM336 843q13 44 50 68.5t88 24.5q50 0 70 -21t20 -45q0 -13 -4 -27q-11 -43 -48 -68q-38 -25 -88 -25t-70.5 21.5t-20.5 47.5q0 11 3 24zM598 843q12 43 49 68t87 25q51 0 71 -20.5t20 -44.5q0 -13 -5 -28
q-11 -43 -48 -68t-87 -25t-70.5 21.5t-20.5 45.5q0 12 4 26zM460 223l14 197h-18l-93 -197h97z" />
    <glyph glyph-name="Aring" unicode="&#xc5;" horiz-adv-x="972" 
d="M-146 0l520 700h333l143 -700h-398l10 138h-145l-64 -138h-399zM418 870q16 59 70.5 93.5t132.5 34.5q77 0 108 -29t31 -65q0 -16 -5 -34q-16 -58 -70.5 -92t-131.5 -34q-78 0 -109 29t-31 64q0 15 5 33zM363 223h97l14 197h-18zM545 838q9 -13 29 -13q46 0 59 45
q2 7 2 13q0 11 -8 21t-29 10t-37 -12t-19.5 -25.5t-3.5 -18.5q0 -12 7 -20z" />
    <glyph glyph-name="AE" unicode="&#xc6;" horiz-adv-x="1452" 
d="M485 700h965l-70 -260l-484 10l-11 -44l385 10l-30 -113l-381 10l-15 -59l520 18l-73 -272h-795l41 153h-148l-96 -153h-434zM450 251h114l54 204h-36z" />
    <glyph glyph-name="Ccedilla" unicode="&#xc7;" horiz-adv-x="899" 
d="M-38 241q0 69 20.5 135t68.5 128t118.5 108.5t178 74.5t239.5 28q172 0 317 -41l-103 -312q-42 25 -119 42.5t-156 17.5q-132 0 -199.5 -18.5t-67.5 -63.5q0 -36 64 -49t191 -13q85 0 170 18t143 44l-84 -318q-158 -37 -353 -37h-30l-31 -37q17 5 33 5q26 0 49.5 -13.5
t23.5 -42.5q0 -11 -4 -23q-12 -47 -62.5 -72.5t-115.5 -25.5q-89 0 -132 34l41 68q44 -29 105 -29q52 0 58 27q1 3 1 5q0 8 -7 12.5t-19 4.5q-2 0 -10.5 -0.5t-24.5 -8.5l-51 37l49 66q-301 37 -301 249z" />
    <glyph glyph-name="Egrave" unicode="&#xc8;" horiz-adv-x="845" 
d="M573 753h-161l-172 152h260zM279 389l372 10l-25 -92l-367 10l-14 -51l523 26l-78 -292h-796l188 700h769l-74 -274l-486 10z" />
    <glyph glyph-name="Eacute" unicode="&#xc9;" horiz-adv-x="845" 
d="M549 753h-161l155 152h260zM768 292l-78 -292h-796l188 700h769l-74 -274l-486 10l-12 -47l372 10l-25 -92l-367 10l-14 -51z" />
    <glyph glyph-name="Ecircumflex" unicode="&#xca;" horiz-adv-x="845" 
d="M82 700h769l-74 -274l-486 10l-12 -47l372 10l-25 -92l-367 10l-14 -51l523 26l-78 -292h-796zM211 752l187 152h242l105 -152h-203l-46 64l-80 -64h-205z" />
    <glyph glyph-name="Edieresis" unicode="&#xcb;" horiz-adv-x="845" 
d="M82 700h769l-74 -274l-486 10l-12 -47l372 10l-25 -92l-367 10l-14 -51l523 26l-78 -292h-796zM259 843q13 44 50 68.5t88 24.5q50 0 70 -21t20 -45q0 -13 -4 -27q-11 -43 -48 -68q-38 -25 -88 -25t-70.5 21.5t-20.5 47.5q0 11 3 24zM521 843q12 43 49 68t87 25
q51 0 71 -20.5t20 -44.5q0 -13 -5 -28q-11 -43 -48 -68t-87 -25t-70.5 21.5t-20.5 45.5q0 12 4 26z" />
    <glyph glyph-name="Igrave" unicode="&#xcc;" horiz-adv-x="783" 
d="M539 753h-161l-172 152h260zM817 700l-80 -298l-235 18l-36 -139l243 17l-80 -298h-743l80 298l235 -17l38 139l-245 -18l80 298h743z" />
    <glyph glyph-name="Iacute" unicode="&#xcd;" horiz-adv-x="783" 
d="M515 753h-161l155 152h260zM709 298l-80 -298h-743l80 298l235 -17l38 139l-245 -18l80 298h743l-80 -298l-235 18l-36 -139z" />
    <glyph glyph-name="Icircumflex" unicode="&#xce;" horiz-adv-x="783" 
d="M-114 0l80 298l235 -17l38 139l-245 -18l80 298h743l-80 -298l-235 18l-36 -139l243 17l-80 -298h-743zM177 752l187 152h242l105 -152h-203l-46 64l-80 -64h-205z" />
    <glyph glyph-name="Idieresis" unicode="&#xcf;" horiz-adv-x="783" 
d="M-34 298l235 -17l38 139l-245 -18l80 298h743l-80 -298l-235 18l-36 -139l243 17l-80 -298h-743zM225 843q13 44 50 68.5t88 24.5q50 0 70 -21t20 -45q0 -13 -4 -27q-11 -43 -48 -68q-38 -25 -88 -25t-70.5 21.5t-20.5 47.5q0 11 3 24zM487 843q12 43 49 68t87 25
q51 0 71 -20.5t20 -44.5q0 -13 -5 -28q-11 -43 -48 -68t-87 -25t-70.5 21.5t-20.5 45.5q0 12 4 26z" />
    <glyph glyph-name="Eth" unicode="&#xd0;" horiz-adv-x="996" 
d="M-33 381h103l86 319h415q215 0 298 -77t83 -176q0 -45 -14 -97q-45 -166 -193 -258t-362 -92h-415l86 322h-103zM488 288q144 0 161 62q1 5 1 10q0 24 -30 38.5t-98 14.5h-159l-8 -32h154l-16 -59h-154l-9 -34h158z" />
    <glyph glyph-name="Ntilde" unicode="&#xd1;" horiz-adv-x="951" 
d="M-106 0l188 700h261l260 -314l19 6l17 308h338l-188 -700h-255l-255 360l-17 -6l-15 -354h-353zM327 788q21 68 67.5 106t103.5 38q42 0 92 -27q38 -21 61 -21q21 0 34 10t23 40l104 -18q-45 -145 -170 -145q-43 0 -99 29q-37 19 -57 19q-36 0 -55 -52z" />
    <glyph glyph-name="Ograve" unicode="&#xd2;" horiz-adv-x="976" 
d="M-17 370q21 63 67 125.5t111.5 111t165.5 78.5t219 30q181 0 284 -67.5t103 -192.5q0 -50 -15 -102.5t-44 -105.5t-77.5 -100t-111 -83.5t-149 -57.5t-186.5 -21q-181 0 -284 68t-103 193q0 61 20 124zM323 332q54 -38 120.5 -61.5t107.5 -23.5q34 0 54 14.5t20 36.5
q0 34 -53.5 71.5t-119 60.5t-106.5 23q-34 0 -55.5 -14.5t-21.5 -36.5q0 -33 54 -70zM578 905l73 -152h-161l-172 152h260z" />
    <glyph glyph-name="Oacute" unicode="&#xd3;" horiz-adv-x="976" 
d="M-17 370q21 63 67 125.5t111.5 111t165.5 78.5t219 30q181 0 284 -67.5t103 -192.5q0 -50 -15 -102.5t-44 -105.5t-77.5 -100t-111 -83.5t-149 -57.5t-186.5 -21q-181 0 -284 68t-103 193q0 61 20 124zM323 332q54 -38 120.5 -61.5t107.5 -23.5q34 0 54 14.5t20 36.5
q0 34 -53.5 71.5t-119 60.5t-106.5 23q-34 0 -55.5 -14.5t-21.5 -36.5q0 -33 54 -70zM466 753l155 152h260l-254 -152h-161z" />
    <glyph glyph-name="Ocircumflex" unicode="&#xd4;" horiz-adv-x="976" 
d="M-17 370q21 63 67 125.5t111.5 111t165.5 78.5t219 30q181 0 284 -67.5t103 -192.5q0 -50 -15 -102.5t-44 -105.5t-77.5 -100t-111 -83.5t-149 -57.5t-186.5 -21q-181 0 -284 68t-103 193q0 61 20 124zM289 752l187 152h242l105 -152h-203l-46 64l-80 -64h-205zM269 402
q0 -33 54 -70.5t120.5 -61t107.5 -23.5q34 0 54 14.5t20 36.5q0 34 -53.5 71.5t-119 60.5t-106.5 23q-34 0 -55.5 -14.5t-21.5 -36.5z" />
    <glyph glyph-name="Otilde" unicode="&#xd5;" horiz-adv-x="976" 
d="M-17 370q21 63 67 125.5t111.5 111t165.5 78.5t219 30q181 0 284 -67.5t103 -192.5q0 -50 -15 -102.5t-44 -105.5t-77.5 -100t-111 -83.5t-149 -57.5t-186.5 -21q-181 0 -284 68t-103 193q0 61 20 124zM339 788q21 68 67.5 106t103.5 38q42 0 92 -27q38 -21 61 -21
q21 0 34 10t23 40l104 -18q-45 -145 -170 -145q-43 0 -99 29q-37 19 -57 19q-36 0 -55 -52zM269 402q0 -33 54 -70.5t120.5 -61t107.5 -23.5q34 0 54 14.5t20 36.5q0 34 -53.5 71.5t-119 60.5t-106.5 23q-34 0 -55.5 -14.5t-21.5 -36.5z" />
    <glyph glyph-name="Odieresis" unicode="&#xd6;" horiz-adv-x="976" 
d="M-17 370q21 63 67 125.5t111.5 111t165.5 78.5t219 30q181 0 284 -67.5t103 -192.5q0 -50 -15 -102.5t-44 -105.5t-77.5 -100t-111 -83.5t-149 -57.5t-186.5 -21q-181 0 -284 68t-103 193q0 61 20 124zM269 402q0 -33 54 -70.5t120.5 -61t107.5 -23.5q34 0 54 14.5
t20 36.5q0 34 -53.5 71.5t-119 60.5t-106.5 23q-34 0 -55.5 -14.5t-21.5 -36.5zM337 843q13 44 50 68.5t88 24.5q50 0 70 -21t20 -45q0 -13 -4 -27q-11 -43 -48 -68q-38 -25 -88 -25t-70.5 21.5t-20.5 47.5q0 11 3 24zM599 843q12 43 49 68t87 25q51 0 71 -20.5t20 -44.5
q0 -13 -5 -28q-11 -43 -48 -68t-87 -25t-70.5 21.5t-20.5 45.5q0 12 4 26z" />
    <glyph glyph-name="multiply" unicode="&#xd7;" horiz-adv-x="600" 
d="M227 231l-171 -130l-90 116l171 129l-101 130l151 116l102 -130l172 130l91 -116l-170 -130l101 -129l-152 -116z" />
    <glyph glyph-name="Oslash" unicode="&#xd8;" horiz-adv-x="976" 
d="M8 109q-44 61 -44 142q0 46 14 99q46 174 200 269.5t368 95.5q185 0 286 -71l109 71l33 -68l-86 -56q44 -61 44 -142q0 -46 -14 -99q-31 -116 -113 -199t-198.5 -124.5t-256.5 -41.5q-184 0 -284 70l-114 -74l-35 69zM291 293l213 138q-11 1 -34 1q-86 0 -141 -21.5
t-65 -60.5q-2 -7 -2 -14q0 -26 29 -43zM426 268q86 0 141.5 22t65.5 60q2 7 2 14q0 26 -29 43l-212 -138q10 -1 32 -1z" />
    <glyph glyph-name="Ugrave" unicode="&#xd9;" horiz-adv-x="898" 
d="M-24 312l104 388h306l-92 -259q-12 -31 -12 -59q0 -40 28.5 -63.5t83.5 -23.5q74 0 120.5 40.5t58.5 105.5l47 259h306l-104 -388q-41 -154 -175.5 -240.5t-335.5 -86.5q-169 0 -258.5 61t-89.5 173q0 45 13 93zM279 905h260l73 -152h-161z" />
    <glyph glyph-name="Uacute" unicode="&#xda;" horiz-adv-x="898" 
d="M-24 312l104 388h306l-92 -259q-12 -31 -12 -59q0 -40 28.5 -63.5t83.5 -23.5q74 0 120.5 40.5t58.5 105.5l47 259h306l-104 -388q-41 -154 -175.5 -240.5t-335.5 -86.5q-169 0 -258.5 61t-89.5 173q0 45 13 93zM428 753l155 152h260l-254 -152h-161z" />
    <glyph glyph-name="Ucircumflex" unicode="&#xdb;" horiz-adv-x="898" 
d="M-24 312l104 388h306l-92 -259q-12 -31 -12 -59q0 -40 28.5 -63.5t83.5 -23.5q74 0 120.5 40.5t58.5 105.5l47 259h306l-104 -388q-41 -154 -175.5 -240.5t-335.5 -86.5q-169 0 -258.5 61t-89.5 173q0 45 13 93zM437 904h242l105 -152h-203l-46 64l-80 -64h-205z" />
    <glyph glyph-name="Udieresis" unicode="&#xdc;" horiz-adv-x="898" 
d="M-37 219q0 45 13 93l104 388h306l-92 -259q-12 -31 -12 -59q0 -40 28.5 -63.5t83.5 -23.5q74 0 120.5 40.5t58.5 105.5l47 259h306l-104 -388q-41 -154 -175.5 -240.5t-335.5 -86.5q-169 0 -258.5 61t-89.5 173zM299 843q13 44 50 68.5t88 24.5q50 0 70 -21t20 -45
q0 -13 -4 -27q-11 -43 -48 -68q-38 -25 -88 -25t-70.5 21.5t-20.5 47.5q0 11 3 24zM561 843q12 43 49 68t87 25q51 0 71 -20.5t20 -44.5q0 -13 -5 -28q-11 -43 -48 -68t-87 -25t-70.5 21.5t-20.5 45.5q0 12 4 26z" />
    <glyph glyph-name="Yacute" unicode="&#xdd;" horiz-adv-x="937" 
d="M448 700l-8 -272h19l137 272h393l-441 -434l-51 -266h-324l92 266l-209 434h392zM447 753l155 152h260l-254 -152h-161z" />
    <glyph glyph-name="Thorn" unicode="&#xde;" horiz-adv-x="888" 
d="M-106 0l188 700h289l-25 -79h203q167 -1 234 -54.5t67 -128.5q0 -32 -10 -69q-34 -125 -147.5 -190.5t-279.5 -65.5h-204l-20 -113h-295zM247 255h197q79 0 89 38q1 5 1 9q0 13 -16.5 21t-52.5 8h-198z" />
    <glyph glyph-name="germandbls" unicode="&#xdf;" horiz-adv-x="888" 
d="M406 -15q-80 0 -164 18l63 234q34 -7 90 -7q109 0 120 44q3 12 -5.5 21.5t-33.5 16.5t-63 7h-78l19 70h60q46 0 75.5 12.5t34.5 30.5q5 17 -18 28t-66 11q-55 0 -90 -17t-43 -48l-108 -407h-284l112 421q35 132 158.5 213.5t320.5 81.5q173 0 260.5 -55.5t62.5 -146.5
q-16 -58 -77 -100t-146 -45l-4 -12q97 -2 150 -48.5t34 -117.5q-26 -97 -125.5 -151t-254.5 -54z" />
    <glyph glyph-name="agrave" unicode="&#xe0;" horiz-adv-x="779" 
d="M23 414q91 101 221 101q90 0 146 -47.5t56 -114.5q0 -10 -1 -20h15l9 167h289l-135 -500h-280l69 153h-15q-37 -79 -108 -123.5t-155 -44.5q-90 0 -146.5 55t-56.5 141q0 132 92 233zM69 705h260l73 -152h-161zM192 291q0 -30 72.5 -64t122.5 -34q37 0 37 28
q0 32 -71.5 64t-124.5 32q-36 0 -36 -26z" />
    <glyph glyph-name="aacute" unicode="&#xe1;" horiz-adv-x="779" 
d="M23 414q91 101 221 101q90 0 146 -47.5t56 -114.5q0 -10 -1 -20h15l9 167h289l-135 -500h-280l69 153h-15q-37 -79 -108 -123.5t-155 -44.5q-90 0 -146.5 55t-56.5 141q0 132 92 233zM372 705h260l-254 -152h-161zM192 291q0 -30 72.5 -64t122.5 -34q37 0 37 28
q0 32 -71.5 64t-124.5 32q-36 0 -36 -26z" />
    <glyph glyph-name="acircumflex" unicode="&#xe2;" horiz-adv-x="779" 
d="M23 414q91 101 221 101q90 0 146 -47.5t56 -114.5q0 -10 -1 -20h15l9 167h289l-135 -500h-280l69 153h-15q-37 -79 -108 -123.5t-155 -44.5q-90 0 -146.5 55t-56.5 141q0 132 92 233zM40 552l187 152h242l105 -152h-203l-46 64l-80 -64h-205zM265 227q72 -34 122 -34
q37 0 37 28q0 32 -71.5 64t-124.5 32q-36 0 -36 -26q0 -30 73 -64z" />
    <glyph glyph-name="atilde" unicode="&#xe3;" horiz-adv-x="779" 
d="M23 414q91 101 221 101q90 0 146 -47.5t56 -114.5q0 -10 -1 -20h15l9 167h289l-135 -500h-280l69 153h-15q-37 -79 -108 -123.5t-155 -44.5q-90 0 -146.5 55t-56.5 141q0 132 92 233zM91 588q21 68 67.5 106t103.5 38q42 0 92 -27q38 -21 61 -21q21 0 34 10t23 40
l104 -18q-45 -145 -170 -145q-43 0 -99 29q-37 19 -57 19q-36 0 -55 -52zM265 227q72 -34 122 -34q37 0 37 28q0 32 -71.5 64t-124.5 32q-36 0 -36 -26q0 -30 73 -64z" />
    <glyph glyph-name="adieresis" unicode="&#xe4;" horiz-adv-x="779" 
d="M23 414q91 101 221 101q90 0 146 -47.5t56 -114.5q0 -10 -1 -20h15l9 167h289l-135 -500h-280l69 153h-15q-37 -79 -108 -123.5t-155 -44.5q-90 0 -146.5 55t-56.5 141q0 132 92 233zM88 643q13 44 50 68.5t88 24.5q50 0 70 -21t20 -45q0 -13 -4 -27q-11 -43 -48 -68
q-38 -25 -88 -25t-70.5 21.5t-20.5 47.5q0 11 3 24zM350 643q12 43 49 68t87 25q51 0 71 -20.5t20 -44.5q0 -13 -5 -28q-11 -43 -48 -68t-87 -25t-70.5 21.5t-20.5 45.5q0 12 4 26zM192 291q0 -30 72.5 -64t122.5 -34q37 0 37 28q0 32 -71.5 64t-124.5 32q-36 0 -36 -26z
" />
    <glyph glyph-name="aring" unicode="&#xe5;" horiz-adv-x="779" 
d="M23 414q91 101 221 101q90 0 146 -47.5t56 -114.5q0 -10 -1 -20h15l9 167h289l-135 -500h-280l69 153h-15q-37 -79 -108 -123.5t-155 -44.5q-90 0 -146.5 55t-56.5 141q0 132 92 233zM171 670q16 59 70.5 93.5t132.5 34.5q77 0 108 -29t31 -65q0 -16 -5 -34
q-16 -58 -70.5 -92t-131.5 -34q-78 0 -109 29t-31 64q0 15 5 33zM265 227q72 -34 122 -34q37 0 37 28q0 32 -71.5 64t-124.5 32q-36 0 -36 -26q0 -30 73 -64zM298 638q9 -13 29 -13q46 0 59 45q2 7 2 13q0 11 -8 21t-29 10t-37 -12t-19.5 -25.5t-3.5 -18.5q0 -12 7 -20z" />
    <glyph glyph-name="ae" unicode="&#xe6;" horiz-adv-x="1151" 
d="M142 -15q-119 0 -181.5 40t-42.5 115q20 73 93 113.5t183 40.5q74 0 115.5 -22t43.5 -55h17l3 12q11 38 -40 66t-133 28q-100 0 -206 -41l51 193q141 40 277 40q107 0 171 -29t68 -88h12q36 57 108.5 87t151.5 30q144 0 204.5 -68t30.5 -180q-6 -23 -17 -39h-416
q-3 -11 20.5 -21t62.5 -15.5t82 -5.5q130 0 222 35l-50 -195q-114 -41 -261 -41q-227 0 -270 134h-13q-20 -65 -97 -99.5t-189 -34.5zM639 266h201q3 27 -20 42.5t-65 15.5q-82 0 -116 -58zM266 148q88 0 96 27q4 13 -17.5 20.5t-63.5 7.5q-87 0 -95 -28q-4 -13 17.5 -20
t62.5 -7z" />
    <glyph glyph-name="ccedilla" unicode="&#xe7;" horiz-adv-x="637" 
d="M-65 180q0 44 14.5 89t48.5 89.5t83 79t123.5 56t164.5 21.5q133 0 232 -23l-79 -231q-80 26 -165 26t-123.5 -8.5t-38.5 -29.5q0 -19 37 -25.5t117 -6.5q111 0 206 38l-63 -238q-77 -23 -206 -30l-32 -39q17 5 33 5q26 0 49.5 -13.5t23.5 -42.5q0 -11 -4 -23
q-12 -47 -62.5 -72.5t-115.5 -25.5q-89 0 -132 34l41 68q44 -29 105 -29q52 0 58 27q1 3 1 5q0 8 -7 12.5t-19 4.5q-2 0 -10.5 -0.5t-24.5 -8.5l-51 37l44 60q-116 8 -182 59t-66 135z" />
    <glyph glyph-name="egrave" unicode="&#xe8;" horiz-adv-x="701" 
d="M-62 200q3 59 30.5 113.5t77.5 100.5t131 73.5t182 27.5q139 0 207 -53t68 -135q0 -9 -1 -17q-2 -52 -24 -82h-429v-3q0 -9 17.5 -18.5t54.5 -15t84 -5.5q141 0 242 35l-51 -195q-121 -41 -283 -41q-154 0 -230.5 54t-76.5 145q0 8 1 16zM128 705h260l73 -152h-161z
M192 266h207v6q0 23 -23 37.5t-65 14.5q-87 0 -119 -58z" />
    <glyph glyph-name="eacute" unicode="&#xe9;" horiz-adv-x="701" 
d="M-62 200q3 59 30.5 113.5t77.5 100.5t131 73.5t182 27.5q139 0 207 -53t68 -135q0 -9 -1 -17q-2 -52 -24 -82h-429v-3q0 -9 17.5 -18.5t54.5 -15t84 -5.5q141 0 242 35l-51 -195q-121 -41 -283 -41q-154 0 -230.5 54t-76.5 145q0 8 1 16zM431 705h260l-254 -152h-161z
M192 266h207v6q0 23 -23 37.5t-65 14.5q-87 0 -119 -58z" />
    <glyph glyph-name="ecircumflex" unicode="&#xea;" horiz-adv-x="701" 
d="M-62 200q3 59 30.5 113.5t77.5 100.5t131 73.5t182 27.5q139 0 207 -53t68 -135q0 -9 -1 -17q-2 -52 -24 -82h-429v-3q0 -9 17.5 -18.5t54.5 -15t84 -5.5q141 0 242 35l-51 -195q-121 -41 -283 -41q-154 0 -230.5 54t-76.5 145q0 8 1 16zM99 552l187 152h242l105 -152
h-203l-46 64l-80 -64h-205zM192 266h207v6q0 23 -23 37.5t-65 14.5q-87 0 -119 -58z" />
    <glyph glyph-name="edieresis" unicode="&#xeb;" horiz-adv-x="701" 
d="M-62 200q3 59 30.5 113.5t77.5 100.5t131 73.5t182 27.5q139 0 207 -53t68 -135q0 -9 -1 -17q-2 -52 -24 -82h-429v-3q0 -9 17.5 -18.5t54.5 -15t84 -5.5q141 0 242 35l-51 -195q-121 -41 -283 -41q-154 0 -230.5 54t-76.5 145q0 8 1 16zM147 643q13 44 50 68.5t88 24.5
q50 0 70 -21t20 -45q0 -13 -4 -27q-11 -43 -48 -68q-38 -25 -88 -25t-70.5 21.5t-20.5 47.5q0 11 3 24zM409 643q12 43 49 68t87 25q51 0 71 -20.5t20 -44.5q0 -13 -5 -28q-11 -43 -48 -68t-87 -25t-70.5 21.5t-20.5 45.5q0 12 4 26zM192 266h207v6q0 23 -23 37.5t-65 14.5
q-87 0 -119 -58z" />
    <glyph glyph-name="igrave" unicode="&#xec;" horiz-adv-x="416" 
d="M314 553h-161l-172 152h260zM-28 0l71 267h-94l63 233h354l-134 -500h-260z" />
    <glyph glyph-name="iacute" unicode="&#xed;" horiz-adv-x="416" 
d="M290 553h-161l155 152h260zM366 500l-134 -500h-260l71 267h-94l63 233h354z" />
    <glyph glyph-name="icircumflex" unicode="&#xee;" horiz-adv-x="416" 
d="M-51 267l63 233h354l-134 -500h-260l71 267h-94zM-48 552l187 152h242l105 -152h-203l-46 64l-80 -64h-205z" />
    <glyph glyph-name="idieresis" unicode="&#xef;" horiz-adv-x="416" 
d="M12 500h354l-134 -500h-260l71 267h-94zM0 643q13 44 50 68.5t88 24.5q50 0 70 -21t20 -45q0 -13 -4 -27q-11 -43 -48 -68q-38 -25 -88 -25t-70.5 21.5t-20.5 47.5q0 11 3 24zM262 643q12 43 49 68t87 25q51 0 71 -20.5t20 -44.5q0 -13 -5 -28q-11 -43 -48 -68t-87 -25
t-70.5 21.5t-20.5 45.5q0 12 4 26z" />
    <glyph glyph-name="eth" unicode="&#xf0;" horiz-adv-x="811" 
d="M726 779l-114 -71q97 -55 136.5 -144.5t7.5 -207.5q-46 -172 -182 -271.5t-318 -99.5q-74 0 -135 15.5t-106 48.5t-60.5 83t0.5 119q31 113 132.5 169.5t254.5 56.5q92 0 143 -51l11 7q-6 37 -41.5 69t-89.5 50l-96 -60l-28 47l47 29q-74 8 -142 -14l59 222
q199 18 349 -41l145 91zM493 328q7 28 -26.5 44.5t-93.5 16.5t-101.5 -15.5t-49.5 -45.5q-8 -31 22.5 -49t95.5 -18q56 0 100.5 17.5t52.5 49.5z" />
    <glyph glyph-name="ntilde" unicode="&#xf1;" 
d="M22 500h281l-63 -180h13q40 89 108.5 142t146.5 53q86 0 127.5 -35t41.5 -98q0 -34 -12 -81l-81 -301h-276l68 172q13 31 13 50q0 25 -17.5 39.5t-49.5 14.5q-43 0 -79.5 -30t-46.5 -80l-32 -166h-276zM160 588q21 68 67.5 106t103.5 38q42 0 92 -27q39 -21 61 -21
q21 0 34 10t23 40l104 -18q-45 -145 -170 -145q-43 0 -99 29q-37 19 -57 19q-36 0 -55 -52z" />
    <glyph glyph-name="ograve" unicode="&#xf2;" horiz-adv-x="734" 
d="M-5 352q62 78 161.5 120.5t213.5 42.5q140 0 218 -51t78 -143q0 -96 -61.5 -174t-161 -120t-215.5 -42q-139 0 -216.5 51t-77.5 141q0 96 61 175zM403 705l73 -152h-161l-172 152h260zM187 288q0 -27 72 -63t115 -36q39 0 39 24q0 29 -70.5 64t-116.5 35q-39 0 -39 -24z
" />
    <glyph glyph-name="oacute" unicode="&#xf3;" horiz-adv-x="734" 
d="M-5 352q62 78 161.5 120.5t213.5 42.5q140 0 218 -51t78 -143q0 -96 -61.5 -174t-161 -120t-215.5 -42q-139 0 -216.5 51t-77.5 141q0 96 61 175zM447 705h260l-254 -152h-161zM259 225q72 -36 115 -36q39 0 39 24q0 29 -70.5 64t-116.5 35q-39 0 -39 -24q0 -27 72 -63z
" />
    <glyph glyph-name="ocircumflex" unicode="&#xf4;" horiz-adv-x="734" 
d="M-5 352q62 78 161.5 120.5t213.5 42.5q140 0 218 -51t78 -143q0 -96 -61.5 -174t-161 -120t-215.5 -42q-139 0 -216.5 51t-77.5 141q0 96 61 175zM114 552l187 152h242l105 -152h-203l-46 64l-80 -64h-205zM187 288q0 -27 72 -63t115 -36q39 0 39 24q0 29 -70.5 64
t-116.5 35q-39 0 -39 -24z" />
    <glyph glyph-name="otilde" unicode="&#xf5;" horiz-adv-x="734" 
d="M-5 352q62 78 161.5 120.5t213.5 42.5q140 0 218 -51t78 -143q0 -96 -61.5 -174t-161 -120t-215.5 -42q-139 0 -216.5 51t-77.5 141q0 96 61 175zM165 588q21 68 67.5 106t103.5 38q42 0 92 -27q39 -21 61 -21q21 0 34 10t23 40l104 -18q-45 -145 -170 -145q-43 0 -99 29
q-37 19 -57 19q-36 0 -55 -52zM187 288q0 -27 72 -63t115 -36q39 0 39 24q0 29 -70.5 64t-116.5 35q-39 0 -39 -24z" />
    <glyph glyph-name="odieresis" unicode="&#xf6;" horiz-adv-x="734" 
d="M-66 177q0 96 61.5 174.5t161 121t213.5 42.5q140 0 218 -51t78 -143q0 -96 -61.5 -174t-161 -120t-215.5 -42q-139 0 -216.5 51t-77.5 141zM163 643q13 44 50 68.5t88 24.5q50 0 70 -21t20 -45q0 -13 -4 -27q-11 -43 -48 -68q-38 -25 -88 -25t-70.5 21.5t-20.5 47.5
q0 11 3 24zM425 643q12 43 49 68t87 25q51 0 71 -20.5t20 -44.5q0 -13 -5 -28q-11 -43 -48 -68t-87 -25t-70.5 21.5t-20.5 45.5q0 12 4 26zM259 225q72 -36 115 -36q39 0 39 24q0 29 -70.5 64t-116.5 35q-39 0 -39 -24q0 -27 72 -63z" />
    <glyph glyph-name="divide" unicode="&#xf7;" horiz-adv-x="676" 
d="M324 451q-59 1 -88 30.5t-14 81.5q13 52 58 82t104 30t88.5 -30t16.5 -82q-14 -52 -60 -82t-105 -30zM587 277h-618l38 141h618zM208 19q-59 0 -88 30t-15 82t59.5 82t104.5 30q59 -1 88.5 -30.5t14.5 -81.5q-14 -52 -59.5 -82t-104.5 -30z" />
    <glyph glyph-name="oslash" unicode="&#xf8;" horiz-adv-x="752" 
d="M671 506l-62 -52q91 -72 55 -205q-33 -123 -148 -193.5t-279 -70.5q-91 0 -155 23l-91 -77l-45 57l66 56q-94 71 -58 205q33 124 147 195t278 71q95 0 162 -24l84 71zM160 251q-9 -35 34 -54l146 124h-12q-68 0 -113.5 -18.5t-54.5 -51.5zM459 251q9 33 -28 52l-143 -121
h3q69 0 114.5 18t53.5 51z" />
    <glyph glyph-name="ugrave" unicode="&#xf9;" 
d="M-63 199l81 301h277l-69 -172q-14 -35 -14 -53q0 -51 68 -51q44 0 81 30t46 80l31 166h276l-134 -500h-281l63 180h-13q-40 -89 -108.5 -142t-146.5 -53q-86 0 -128 35t-42 98q0 32 13 81zM145 705h260l73 -152h-161z" />
    <glyph glyph-name="uacute" unicode="&#xfa;" 
d="M-63 199l81 301h277l-69 -172q-14 -35 -14 -53q0 -51 68 -51q44 0 81 30t46 80l31 166h276l-134 -500h-281l63 180h-13q-40 -89 -108.5 -142t-146.5 -53q-86 0 -128 35t-42 98q0 32 13 81zM449 705h260l-254 -152h-161z" />
    <glyph glyph-name="ucircumflex" unicode="&#xfb;" 
d="M-63 199l81 301h277l-69 -172q-14 -35 -14 -53q0 -51 68 -51q44 0 81 30t46 80l31 166h276l-134 -500h-281l63 180h-13q-40 -89 -108.5 -142t-146.5 -53q-86 0 -128 35t-42 98q0 32 13 81zM116 552l187 152h242l105 -152h-203l-46 64l-80 -64h-205z" />
    <glyph glyph-name="udieresis" unicode="&#xfc;" 
d="M-76 118q0 32 13 81l81 301h277l-69 -172q-14 -35 -14 -53q0 -51 68 -51q44 0 81 30t46 80l31 166h276l-134 -500h-281l63 180h-13q-40 -89 -108.5 -142t-146.5 -53q-86 0 -128 35t-42 98zM165 643q13 44 50 68.5t88 24.5q50 0 70 -21t20 -45q0 -13 -4 -27
q-11 -43 -48 -68q-38 -25 -88 -25t-70.5 21.5t-20.5 47.5q0 11 3 24zM427 643q12 43 49 68t87 25q51 0 71 -20.5t20 -44.5q0 -13 -5 -28q-11 -43 -48 -68t-87 -25t-70.5 21.5t-20.5 45.5q0 12 4 26z" />
    <glyph glyph-name="yacute" unicode="&#xfd;" 
d="M-93 -202l43 210q72 -22 171 -22q73 0 135.5 36t85.5 103l20 55h-13q-40 -88 -95 -128.5t-135 -40.5q-92 0 -140 36t-48 100q0 28 11 70l76 283h277l-70 -172q-13 -32 -13 -53q0 -51 68 -51q45 0 82.5 30t44.5 80l24 166h283l-111 -405q-19 -71 -55.5 -124.5t-98 -97
t-156.5 -66t-221 -22.5q-41 0 -165 13zM298 553l155 152h260l-254 -152h-161z" />
    <glyph glyph-name="thorn" unicode="&#xfe;" horiz-adv-x="811" 
d="M98 700h317l-159 -353h14q36 78 114.5 123t164.5 45q110 0 148 -58.5t38 -118.5q0 -41 -22.5 -123.5t-109 -156t-196.5 -73.5q-88 0 -137 45t-49 113q0 12 1 24h-14l-60 -367h-292zM239 237q7 -7 22 -11t37.5 -6t51.5 -2q122 0 130 34q1 2 1 4q0 15 -26 22.5t-86 7.5
q-127 0 -135 -34v-4q0 -6 5 -11z" />
    <glyph glyph-name="ydieresis" unicode="&#xff;" 
d="M-93 -202l43 210q72 -22 171 -22q73 0 135.5 36t85.5 103l20 55h-13q-40 -88 -95 -128.5t-135 -40.5q-92 0 -140 36t-48 100q0 28 11 70l76 283h277l-70 -172q-13 -32 -13 -53q0 -51 68 -51q45 0 82.5 30t44.5 80l24 166h283l-111 -405q-19 -71 -55.5 -124.5t-98 -97
t-156.5 -66t-221 -22.5q-41 0 -165 13zM169 643q13 44 50 68.5t88 24.5q50 0 70 -21t20 -45q0 -13 -4 -27q-11 -43 -48 -68q-38 -25 -88 -25t-70.5 21.5t-20.5 47.5q0 11 3 24zM431 643q12 43 49 68t87 25q51 0 71 -20.5t20 -44.5q0 -13 -5 -28q-11 -43 -48 -68t-87 -25
t-70.5 21.5t-20.5 45.5q0 12 4 26z" />
    <glyph glyph-name="Amacron" unicode="&#x100;" horiz-adv-x="972" 
d="M374 700h333l143 -700h-398l10 138h-145l-64 -138h-399zM325 756l36 136h461l-36 -136h-461zM363 223h97l14 197h-18z" />
    <glyph glyph-name="amacron" unicode="&#x101;" horiz-adv-x="776" 
d="M23 414q91 101 221 101q90 0 146 -47.5t56 -114.5q0 -10 -1 -20h15l9 167h289l-135 -500h-280l69 153h-15q-37 -79 -108 -123.5t-155 -44.5q-90 0 -146.5 55t-56.5 141q0 132 92 233zM92 556l36 136h461l-36 -136h-461zM192 291q0 -30 72.5 -64t122.5 -34q37 0 37 28
q0 32 -71.5 64t-124.5 32q-36 0 -36 -26z" />
    <glyph glyph-name="Abreve" unicode="&#x102;" horiz-adv-x="972" 
d="M374 700h333l143 -700h-398l10 138h-145l-64 -138h-399zM396 916h131q-2 -7 -2 -14q0 -16 14 -30.5t44 -14.5q31 0 56 17t33 42h130q-19 -70 -91 -119t-158 -49t-124.5 41.5t-38.5 86.5q0 19 6 40zM363 223h97l14 197h-18z" />
    <glyph glyph-name="abreve" unicode="&#x103;" horiz-adv-x="779" 
d="M23 414q91 101 221 101q90 0 146 -47.5t56 -114.5q0 -10 -1 -20h15l9 167h289l-135 -500h-280l69 153h-15q-37 -79 -108 -123.5t-155 -44.5q-90 0 -146.5 55t-56.5 141q0 132 92 233zM148 716h131q-2 -7 -2 -14q0 -16 14 -30.5t44 -14.5q31 0 56 17t33 42h130
q-19 -70 -91 -119t-158 -49t-124.5 41.5t-38.5 86.5q0 19 6 40zM192 291q0 -30 72.5 -64t122.5 -34q37 0 37 28q0 32 -71.5 64t-124.5 32q-36 0 -36 -26z" />
    <glyph glyph-name="Aogonek" unicode="&#x104;" horiz-adv-x="972" 
d="M374 700h333l143 -700h-88q-39 -19 -72 -46.5t-41 -57.5q-2 -7 -2 -14q0 -15 11.5 -27.5t42.5 -12.5q9 0 19 1.5t18.5 4.5t14.5 5.5t11 4.5l5 2l-3 -84q-23 -12 -69.5 -21.5t-83.5 -9.5q-71 0 -103 26.5t-32 62.5q0 17 6 38q8 31 37 65.5t71 62.5h-140l10 138h-145
l-64 -138h-399zM363 223h97l14 197h-18z" />
    <glyph glyph-name="aogonek" unicode="&#x105;" horiz-adv-x="776" 
d="M-69 181q0 132 91.5 233t221.5 101q90 0 146 -47.5t56 -114.5q0 -10 -1 -20h15l9 167h289l-135 -500h-47q-85 -46 -98 -96q-2 -7 -2 -14q0 -15 11.5 -28t42.5 -13q9 0 19 2t18 4.5t14.5 5t10.5 5.5l5 2l-2 -84q-22 -13 -69 -22t-84 -9q-71 0 -103 26.5t-32 64.5
q0 16 5 36q16 62 97 120h-66l69 153h-15q-37 -79 -108 -123.5t-155 -44.5q-90 0 -146.5 55t-56.5 141zM265 227q72 -34 122 -34q37 0 37 28q0 32 -71.5 64t-124.5 32q-36 0 -36 -26q0 -30 73 -64z" />
    <glyph glyph-name="Cacute" unicode="&#x106;" horiz-adv-x="899" 
d="M-18 376q21 66 69 128t118.5 108.5t178 74.5t239.5 28q172 0 317 -41l-103 -312q-42 25 -119 42.5t-156 17.5q-132 0 -199.5 -18.5t-67.5 -63.5q0 -36 64 -49t191 -13q85 0 170 18t143 44l-84 -318q-158 -37 -353 -37q-203 0 -315.5 62.5t-112.5 193.5q0 69 20 135z
M428 753l155 152h260l-254 -152h-161z" />
    <glyph glyph-name="cacute" unicode="&#x107;" horiz-adv-x="637" 
d="M-51 269q15 45 49 89.5t83 79t123.5 56t164.5 21.5q133 0 232 -23l-79 -231q-80 26 -165 26t-123.5 -8.5t-38.5 -29.5q0 -19 37 -25.5t117 -6.5q111 0 206 38l-63 -238q-110 -32 -267 -32q-134 0 -212 51.5t-78 143.5q0 44 14 89zM416 705h260l-254 -152h-161z" />
    <glyph glyph-name="Cdotaccent" unicode="&#x10a;" horiz-adv-x="899" 
d="M-38 241q0 69 20.5 135t68.5 128t118.5 108.5t178 74.5t239.5 28q172 0 317 -41l-103 -312q-42 25 -119 42.5t-156 17.5q-132 0 -199.5 -18.5t-67.5 -63.5q0 -36 64 -49t191 -13q85 0 170 18t143 44l-84 -318q-158 -37 -353 -37q-203 0 -315.5 62.5t-112.5 193.5z
M431 844q11 43 48.5 68t87.5 25t70 -21t20 -47q0 -11 -3 -25q-12 -43 -49.5 -68t-86.5 -25q-51 0 -71 21.5t-20 45.5q0 12 4 26z" />
    <glyph glyph-name="cdotaccent" unicode="&#x10b;" horiz-adv-x="637" 
d="M-51 269q15 45 49 89.5t83 79t123.5 56t164.5 21.5q133 0 232 -23l-79 -231q-80 26 -165 26t-123.5 -8.5t-38.5 -29.5q0 -19 37 -25.5t117 -6.5q111 0 206 38l-63 -238q-110 -32 -267 -32q-134 0 -212 51.5t-78 143.5q0 44 14 89zM264 644q11 43 48.5 68t87.5 25t70 -21
t20 -47q0 -11 -3 -25q-12 -43 -49.5 -68t-86.5 -25q-51 0 -71 21.5t-20 45.5q0 12 4 26z" />
    <glyph glyph-name="Ccaron" unicode="&#x10c;" horiz-adv-x="899" 
d="M-18 376q21 66 69 128t118.5 108.5t178 74.5t239.5 28q172 0 317 -41l-103 -312q-42 25 -119 42.5t-156 17.5q-132 0 -199.5 -18.5t-67.5 -63.5q0 -36 64 -49t191 -13q85 0 170 18t143 44l-84 -318q-158 -37 -353 -37q-203 0 -315.5 62.5t-112.5 193.5q0 69 20 135z
M497 904l46 -63l80 63h203l-187 -152h-242l-105 152h205z" />
    <glyph glyph-name="ccaron" unicode="&#x10d;" horiz-adv-x="637" 
d="M-51 269q15 45 49 89.5t83 79t123.5 56t164.5 21.5q133 0 232 -23l-79 -231q-80 26 -165 26t-123.5 -8.5t-38.5 -29.5q0 -19 37 -25.5t117 -6.5q111 0 206 38l-63 -238q-110 -32 -267 -32q-134 0 -212 51.5t-78 143.5q0 44 14 89zM124 704h205l46 -63l80 63h203
l-187 -152h-242z" />
    <glyph glyph-name="Dcaron" unicode="&#x10e;" horiz-adv-x="922" 
d="M82 700h416q180 0 280 -65t100 -185q0 -60 -19.5 -121t-63.5 -120.5t-108 -105.5t-161.5 -74.5t-215.5 -28.5h-416zM482 904l46 -63l80 63h203l-187 -152h-242l-105 152h205zM415 288q73 0 117 19t44 54q0 52 -128 52h-159l-33 -125h159z" />
    <glyph glyph-name="dcaron" unicode="&#x10f;" horiz-adv-x="1027" 
d="M23 416q91 99 221 99q90 0 146 -47.5t56 -114.5q0 -10 -1 -20h15l60 367h291l-188 -700h-280l69 153h-15q-37 -79 -108 -123.5t-155 -44.5q-90 0 -146.5 55t-56.5 141q0 135 92 235zM835 750q13 48 53.5 76t93.5 28q54 0 74.5 -27t20.5 -57q0 -18 -6 -39
q-19 -72 -74 -130t-118 -83l-41 69q27 11 57 30.5t39 34.5q-15 -5 -28 -5q-42 0 -59 22.5t-17 47.5q0 15 5 33zM265 227q72 -34 122 -34q37 0 37 28q0 30 -72.5 63t-123.5 33q-36 0 -36 -26q0 -30 73 -64z" />
    <glyph glyph-name="Dcroat" unicode="&#x110;" horiz-adv-x="996" 
d="M-33 381h103l86 319h415q215 0 298 -77t83 -176q0 -45 -14 -97q-45 -166 -193 -258t-362 -92h-415l86 322h-103zM488 288q144 0 161 62q1 5 1 10q0 24 -30 38.5t-98 14.5h-159l-8 -32h154l-16 -59h-154l-9 -34h158z" />
    <glyph glyph-name="dcroat" unicode="&#x111;" horiz-adv-x="829" 
d="M-45 250q32 118 119 191.5t196 73.5q88 0 137.5 -44.5t49.5 -111.5q0 -13 -2 -26h15l29 196h-111l19 72h104l19 99h291l-26 -99h62l-19 -72h-62l-143 -529h-280l69 153h-15q-36 -78 -114.5 -123t-164.5 -45q-109 0 -147.5 59t-38.5 119q0 40 13 87zM308 214q126 0 135 34
q1 2 1 5q0 29 -117 29q-121 0 -126 -18t-5 -21q0 -29 112 -29z" />
    <glyph glyph-name="Emacron" unicode="&#x112;" horiz-adv-x="845" 
d="M710 756h-461l36 136h461zM291 436l-12 -47l372 10l-25 -92l-367 10l-14 -51l523 26l-78 -292h-796l188 700h769l-74 -274z" />
    <glyph glyph-name="emacron" unicode="&#x113;" horiz-adv-x="701" 
d="M-62 200q3 59 30.5 113.5t77.5 100.5t131 73.5t182 27.5q139 0 207 -53t68 -135q0 -9 -1 -17q-2 -52 -24 -82h-429v-3q0 -9 17.5 -18.5t54.5 -15t84 -5.5q141 0 242 35l-51 -195q-121 -41 -283 -41q-154 0 -230.5 54t-76.5 145q0 8 1 16zM172 692h461l-36 -136h-461z
M192 266h207v6q0 23 -23 37.5t-65 14.5q-87 0 -119 -58z" />
    <glyph glyph-name="Edotaccent" unicode="&#x116;" horiz-adv-x="845" 
d="M-106 0l188 700h769l-74 -274l-486 10l-12 -47l372 10l-25 -92l-367 10l-14 -51l523 26l-78 -292h-796zM392 844q11 43 48.5 68t87.5 25t70 -21t20 -47q0 -11 -3 -25q-12 -43 -49.5 -68t-86.5 -25q-51 0 -71 21.5t-20 45.5q0 12 4 26z" />
    <glyph glyph-name="edotaccent" unicode="&#x117;" horiz-adv-x="701" 
d="M-62 200q3 59 30.5 113.5t77.5 100.5t131 73.5t182 27.5q139 0 207 -53t68 -135q0 -9 -1 -17q-2 -52 -24 -82h-429v-3q0 -9 17.5 -18.5t54.5 -15t84 -5.5q141 0 242 35l-51 -195q-121 -41 -283 -41q-154 0 -230.5 54t-76.5 145q0 8 1 16zM279 644q11 43 48.5 68t87.5 25
t70 -21t20 -47q0 -11 -3 -25q-12 -43 -49.5 -68t-86.5 -25q-51 0 -71 21.5t-20 45.5q0 12 4 26zM399 266v6q0 23 -23 37.5t-65 14.5q-87 0 -119 -58h207z" />
    <glyph glyph-name="Eogonek" unicode="&#x118;" horiz-adv-x="845" 
d="M82 700h769l-74 -274l-486 10l-12 -47l372 10l-25 -92l-367 10l-14 -51l523 26l-78 -292q-39 -18 -74 -46.5t-43 -59.5q-2 -7 -2 -14q0 -15 11.5 -27.5t42.5 -12.5q9 0 19 2t18.5 4.5t15 5t10.5 4.5l5 3l-3 -84q-23 -13 -69.5 -22.5t-83.5 -9.5q-71 0 -103 26.5t-32 62.5
q0 17 6 38q8 31 38 67t73 63h-625z" />
    <glyph glyph-name="eogonek" unicode="&#x119;" horiz-adv-x="701" 
d="M-62 200q3 59 30.5 113.5t77.5 100.5t131 73.5t182 27.5q139 0 207 -53t68 -135q0 -9 -1 -17q-2 -52 -24 -82h-429v-3q0 -9 17.5 -18.5t54.5 -15t84 -5.5q141 0 242 35l-51 -195q-76 -25 -185 -36q-79 -44 -92 -94q-2 -7 -2 -13q0 -15 11.5 -28t42.5 -13q9 0 19 1.5
t18 4.5t14 5.5t11 4.5l5 2l-2 -84q-23 -13 -69.5 -22t-83.5 -9q-72 0 -104 26.5t-32 62.5q0 17 6 38q16 61 92 116q-122 12 -180.5 64.5t-58.5 131.5q0 8 1 16zM192 266h207v6q0 23 -23 37.5t-65 14.5q-87 0 -119 -58z" />
    <glyph glyph-name="Ecaron" unicode="&#x11a;" horiz-adv-x="845" 
d="M82 700h769l-74 -274l-486 10l-12 -47l372 10l-25 -92l-367 10l-14 -51l523 26l-78 -292h-796zM457 904l46 -63l80 63h203l-187 -152h-242l-105 152h205z" />
    <glyph glyph-name="ecaron" unicode="&#x11b;" horiz-adv-x="701" 
d="M-62 200q3 59 30.5 113.5t77.5 100.5t131 73.5t182 27.5q139 0 207 -53t68 -135q0 -9 -1 -17q-2 -52 -24 -82h-429v-3q0 -9 17.5 -18.5t54.5 -15t84 -5.5q141 0 242 35l-51 -195q-121 -41 -283 -41q-154 0 -230.5 54t-76.5 145q0 8 1 16zM139 704h205l46 -63l80 63h203
l-187 -152h-242zM192 266h207v6q0 23 -23 37.5t-65 14.5q-87 0 -119 -58z" />
    <glyph glyph-name="Gbreve" unicode="&#x11e;" horiz-adv-x="1018" 
d="M127 576q167 139 442 139q184 0 329 -27l-101 -268q-133 23 -287 23q-119 0 -187.5 -28.5t-68.5 -81.5q0 -71 164 -71q61 0 103 13t47 31l-211 3l26 98h608l-32 -116h-54l-74 -291h-286l136 285h-21q-68 -164 -162.5 -232t-227.5 -68q-149 0 -229.5 62.5t-80.5 179.5
q0 209 167 349zM425 916h131q-2 -7 -2 -14q0 -16 14 -30.5t44 -14.5q31 0 56 17t33 42h130q-19 -70 -91 -119t-158 -49t-124.5 41.5t-38.5 86.5q0 19 6 40z" />
    <glyph glyph-name="gbreve" unicode="&#x11f;" horiz-adv-x="779" 
d="M19 415q85 100 209 100q95 0 156.5 -48t61.5 -115q0 -9 -1 -19h15l9 167h289l-109 -405q-38 -147 -162.5 -228.5t-368.5 -81.5q-41 0 -165 13l43 210q72 -22 171 -22q71 0 136.5 35t92.5 95l16 37h-15q-69 -144 -251 -144q-96 0 -154 47t-58 132q0 126 85 227zM249 716
h131q-2 -7 -2 -14q0 -16 14 -30.5t44 -14.5q31 0 56 17t33 42h130q-19 -70 -91 -119t-158 -49t-124.5 41.5t-38.5 86.5q0 19 6 40zM192 291q0 -30 72.5 -64t122.5 -34q37 0 37 28q0 30 -72.5 63t-123.5 33q-36 0 -36 -26z" />
    <glyph glyph-name="Gdotaccent" unicode="&#x120;" horiz-adv-x="1018" 
d="M-40 227q0 209 167 348.5t442 139.5q184 0 329 -27l-101 -268q-133 23 -287 23q-119 0 -187.5 -28.5t-68.5 -81.5q0 -71 164 -71q61 0 103 13t47 31l-211 3l26 98h608l-32 -116h-54l-74 -291h-286l136 285h-21q-68 -164 -162.5 -232t-227.5 -68q-149 0 -229.5 62.5
t-80.5 179.5zM497 844q11 43 48.5 68t87.5 25t70 -21t20 -47q0 -11 -3 -25q-12 -43 -49.5 -68t-86.5 -25q-51 0 -71 21.5t-20 45.5q0 12 4 26z" />
    <glyph glyph-name="gdotaccent" unicode="&#x121;" horiz-adv-x="779" 
d="M-66 188q0 126 85 226.5t209 100.5q95 0 156.5 -48t61.5 -115q0 -9 -1 -19h15l9 167h289l-109 -405q-38 -147 -162.5 -228.5t-368.5 -81.5q-41 0 -165 13l43 210q72 -22 171 -22q71 0 136.5 35t92.5 95l16 37h-15q-69 -144 -251 -144q-96 0 -154 47t-58 132zM321 644
q11 43 48.5 68t87.5 25t70 -21t20 -47q0 -11 -3 -25q-12 -43 -49.5 -68t-86.5 -25q-51 0 -71 21.5t-20 45.5q0 12 4 26zM265 227q72 -34 122 -34q37 0 37 28q0 30 -72.5 63t-123.5 33q-36 0 -36 -26q0 -30 73 -64z" />
    <glyph glyph-name="uni0122" unicode="&#x122;" horiz-adv-x="1018" 
d="M127 576q167 139 442 139q184 0 329 -27l-101 -268q-133 23 -287 23q-119 0 -187.5 -28.5t-68.5 -81.5q0 -71 164 -71q61 0 103 13t47 31l-211 3l26 98h608l-32 -116h-54l-74 -291h-286l136 285h-21q-68 -164 -162.5 -232t-227.5 -68q-149 0 -229.5 62.5t-80.5 179.5
q0 209 167 349zM90 -166q15 55 61.5 87t107.5 32q63 0 86 -30t23 -64q0 -21 -7 -46q-22 -82 -85 -148.5t-134 -94.5l-46 79q31 13 64.5 35t42.5 38q-17 -5 -30 -5q-48 0 -68.5 26t-20.5 54q0 17 6 37z" />
    <glyph glyph-name="uni0123" unicode="&#x123;" horiz-adv-x="779" 
d="M19 415q85 100 209 100q95 0 156.5 -48t61.5 -115q0 -9 -1 -19h15l9 167h289l-109 -405q-38 -147 -162.5 -228.5t-368.5 -81.5q-41 0 -165 13l43 210q72 -22 171 -22q71 0 136.5 35t92.5 95l16 37h-15q-69 -144 -251 -144q-96 0 -154 47t-58 132q0 126 85 227zM305 686
q22 82 85 148t134 94l46 -79q-31 -13 -64 -34.5t-43 -37.5q22 4 30 4q48 0 68.5 -26.5t20.5 -54.5q0 -16 -5 -35q-15 -55 -62 -87t-108 -32q-63 0 -86 30t-23 64q0 21 7 46zM265 227q72 -34 122 -34q37 0 37 28q0 30 -72.5 63t-123.5 33q-36 0 -36 -26q0 -30 73 -64z" />
    <glyph glyph-name="Hbar" unicode="&#x126;" horiz-adv-x="1028" 
d="M256 0h-312l141 528h-77l18 71h78l28 101h312l-39 -101h270l16 101h312l-27 -101h78l-19 -71h-78l-142 -528h-312l99 267h-302zM379 528l-32 -85h303l14 85h-285z" />
    <glyph glyph-name="hbar" unicode="&#x127;" horiz-adv-x="784" 
d="M543 515q109 0 145.5 -57t9.5 -157l-81 -301h-277l66 166q21 46 8 78t-58 32q-44 0 -80.5 -31t-46.5 -79l-32 -166h-268l142 529h-62l19 72h62l27 99h291l-35 -99h105l-19 -72h-112l-74 -209h13q41 89 109 142t148 53z" />
    <glyph glyph-name="Imacron" unicode="&#x12a;" horiz-adv-x="783" 
d="M676 756h-461l36 136h461zM74 700h743l-80 -298l-235 18l-36 -139l243 17l-80 -298h-743l80 298l235 -17l38 139l-245 -18z" />
    <glyph glyph-name="imacron" unicode="&#x12b;" horiz-adv-x="416" 
d="M450 556h-461l36 136h461zM232 0h-260l71 267h-94l63 233h354z" />
    <glyph glyph-name="Iogonek" unicode="&#x12e;" horiz-adv-x="783" 
d="M-114 0l80 298l235 -17l38 139l-245 -18l80 298h743l-80 -298l-235 18l-36 -139l243 17l-80 -298h-316q-38 -17 -72 -46t-42 -59q-2 -7 -2 -13q0 -15 11.5 -28t42.5 -13q9 0 19 2t18 4.5t14.5 5t11.5 5.5l4 2l-2 -84q-23 -13 -70 -22.5t-83 -9.5q-72 0 -104 26.5
t-32 62.5q0 17 6 38q8 31 38 66.5t72 62.5h-257z" />
    <glyph glyph-name="iogonek" unicode="&#x12f;" horiz-adv-x="416" 
d="M-90 -128q8 30 38 65.5t71 62.5h-47l71 267h-94l63 233h354l-134 -500h-41q-39 -17 -73 -45.5t-42 -58.5q-2 -7 -2 -14q0 -15 11.5 -28t42.5 -13q9 0 19 2t18 4.5t14.5 5t10.5 5.5l5 2l-2 -84q-22 -13 -69 -22t-84 -9q-71 0 -103 26.5t-32 64.5q0 16 5 36zM132 644
q11 43 48.5 68t87.5 25t70 -21t20 -47q0 -11 -3 -25q-12 -43 -49.5 -68t-86.5 -25q-51 0 -71 21.5t-20 45.5q0 12 4 26z" />
    <glyph glyph-name="Idotaccent" unicode="&#x130;" horiz-adv-x="783" 
d="M-114 0l80 298l235 -17l38 139l-245 -18l80 298h743l-80 -298l-235 18l-36 -139l243 17l-80 -298h-743zM358 844q11 43 48.5 68t87.5 25t70 -21t20 -47q0 -11 -3 -25q-12 -43 -49.5 -68t-86.5 -25q-51 0 -71 21.5t-20 45.5q0 12 4 26z" />
    <glyph glyph-name="dotlessi" unicode="&#x131;" horiz-adv-x="416" 
d="M366 500l-134 -500h-260l71 267h-94l63 233h354z" />
    <glyph glyph-name="uni0136" unicode="&#x136;" horiz-adv-x="893" 
d="M-106 0l188 700h310l-124 -341h16l183 341h468l-566 -331l8 -17q102 77 189 77q154 0 185 -82t31 -136q0 -92 -48 -211h-351q44 85 57.5 137t13.5 81q0 27 -12.5 61t-71.5 34q-60 0 -97 -44.5t-41 -107.5l-14 -161h-324zM104 -166q15 55 61.5 87t107.5 32q63 0 86 -30
t23 -64q0 -21 -7 -46q-22 -82 -85 -148.5t-134 -94.5l-46 79q31 13 64.5 35t42.5 38q-17 -5 -30 -5q-48 0 -68.5 26t-20.5 54q0 17 6 37z" />
    <glyph glyph-name="uni0137" unicode="&#x137;" horiz-adv-x="760" 
d="M-112 0l188 700h290l-163 -437h10l137 237h400l-466 -235l4 -11q79 55 160 55q128 0 159.5 -66t31.5 -129q0 -52 -15 -114h-294q16 41 24 77.5t8 69.5q0 2 -0.5 20.5t-19 38.5t-53.5 20h-3q-42 -1 -70 -32t-33 -80l-13 -114h-282zM69 -166q15 55 61.5 87t107.5 32
q63 0 86 -30t23 -64q0 -21 -7 -46q-22 -82 -85 -148.5t-134 -94.5l-46 79q31 13 64.5 35t42.5 38q-17 -5 -30 -5q-48 0 -68.5 26t-20.5 54q0 17 6 37z" />
    <glyph glyph-name="Lacute" unicode="&#x139;" horiz-adv-x="805" 
d="M317 753h-161l155 152h260zM737 315l-84 -315h-759l188 700h305l-136 -403z" />
    <glyph glyph-name="lacute" unicode="&#x13a;" horiz-adv-x="406" 
d="M308 753h-161l155 152h260zM329 233l-63 -233h-378l188 700h290l-162 -467h125z" />
    <glyph glyph-name="uni013B" unicode="&#x13b;" horiz-adv-x="805" 
d="M-106 0l188 700h305l-136 -403l486 18l-84 -315h-759zM77 -166q15 55 61.5 87t107.5 32q63 0 86 -30t23 -64q0 -21 -7 -46q-22 -82 -85 -148.5t-134 -94.5l-46 79q31 13 64.5 35t42.5 38q-17 -5 -30 -5q-48 0 -68.5 26t-20.5 54q0 17 6 37z" />
    <glyph glyph-name="uni013C" unicode="&#x13c;" horiz-adv-x="406" 
d="M76 700h290l-162 -467h125l-63 -233h-378zM-105 -166q15 55 61.5 87t107.5 32q63 0 86 -30t23 -64q0 -21 -7 -46q-22 -82 -85 -148.5t-134 -94.5l-46 79q31 13 64.5 35t42.5 38q-17 -5 -30 -5q-48 0 -68.5 26t-20.5 54q0 17 6 37z" />
    <glyph glyph-name="Lcaron" unicode="&#x13d;" horiz-adv-x="795" 
d="M-106 0l188 700h305l-136 -403l486 18l-84 -315h-759zM525 644q13 48 54 76t94 28q54 0 74.5 -27t20.5 -57q0 -18 -6 -39q-19 -72 -75 -130t-118 -83l-41 69q28 11 57.5 30.5t38.5 34.5q-15 -5 -27 -5q-42 0 -59.5 23t-17.5 48q0 15 5 32z" />
    <glyph glyph-name="lcaron" unicode="&#x13e;" horiz-adv-x="620" 
d="M76 700h290l-162 -467h125l-63 -233h-378zM438 780q13 49 54 77t94 28q54 0 74.5 -27t20.5 -57q0 -18 -6 -39q-19 -72 -74 -130t-118 -84l-41 69q28 12 57.5 31.5t38.5 34.5q-15 -5 -28 -5q-42 0 -59 23t-17 48q0 14 4 31z" />
    <glyph glyph-name="Lslash" unicode="&#x141;" horiz-adv-x="848" 
d="M696 0h-759l72 270l-68 -25l-9 64l97 37l96 354h289l-72 -239l104 40l9 -64l-134 -52l-32 -103l487 18z" />
    <glyph glyph-name="lslash" unicode="&#x142;" horiz-adv-x="453" 
d="M320 0h-379l73 272l-74 -27l-9 64l104 39l94 352h291l-84 -241l97 36l8 -64l-131 -49l-52 -149h124z" />
    <glyph glyph-name="Nacute" unicode="&#x143;" horiz-adv-x="951" 
d="M-106 0l188 700h261l260 -314l19 6l17 308h338l-188 -700h-255l-255 360l-17 -6l-15 -354h-353zM609 905h260l-254 -152h-161z" />
    <glyph glyph-name="nacute" unicode="&#x144;" 
d="M22 500h281l-63 -180h13q40 89 108.5 142t146.5 53q86 0 127.5 -35t41.5 -98q0 -34 -12 -81l-81 -301h-276l68 172q13 31 13 50q0 25 -17.5 39.5t-49.5 14.5q-43 0 -79.5 -30t-46.5 -80l-32 -166h-276zM287 553l155 152h260l-254 -152h-161z" />
    <glyph glyph-name="uni0145" unicode="&#x145;" horiz-adv-x="951" 
d="M-106 0l188 700h261l260 -314l19 6l17 308h338l-188 -700h-255l-255 360l-17 -6l-15 -354h-353zM161 -166q15 55 61.5 87t107.5 32q63 0 86 -30t23 -64q0 -21 -7 -46q-22 -82 -85 -148.5t-134 -94.5l-46 79q31 13 64.5 35t42.5 38q-17 -5 -30 -5q-48 0 -68.5 26t-20.5 54
q0 17 6 37z" />
    <glyph glyph-name="uni0146" unicode="&#x146;" 
d="M22 500h281l-63 -180h13q40 89 108.5 142t146.5 53q86 0 127.5 -35t41.5 -98q0 -34 -12 -81l-81 -301h-276l68 172q13 31 13 50q0 25 -17.5 39.5t-49.5 14.5q-43 0 -79.5 -30t-46.5 -80l-32 -166h-276zM48 -166q15 55 61.5 87t107.5 32q63 0 86 -30t23 -64q0 -21 -7 -46
q-22 -82 -85 -148.5t-134 -94.5l-46 79q31 13 64.5 35t42.5 38q-17 -5 -30 -5q-48 0 -68.5 26t-20.5 54q0 17 6 37z" />
    <glyph glyph-name="Ncaron" unicode="&#x147;" horiz-adv-x="951" 
d="M82 700h261l260 -314l19 6l17 308h338l-188 -700h-255l-255 360l-17 -6l-15 -354h-353zM318 904h205l46 -63l80 63h203l-187 -152h-242z" />
    <glyph glyph-name="ncaron" unicode="&#x148;" 
d="M22 500h281l-63 -180h13q40 89 108.5 142t146.5 53q86 0 127.5 -35t41.5 -98q0 -34 -12 -81l-81 -301h-276l68 172q13 31 13 50q0 25 -17.5 39.5t-49.5 14.5q-43 0 -79.5 -30t-46.5 -80l-32 -166h-276zM150 704h205l46 -63l80 63h203l-187 -152h-242z" />
    <glyph glyph-name="Eng" unicode="&#x14a;" horiz-adv-x="951" 
d="M489 -213q-91 0 -162 21l72 201q44 -13 67 -13q29 0 45 11.5t24 39.5l6 21l-259 292l-20 -6l-47 -354h-321l188 700h261l258 -314l21 6l48 308h307l-192 -714q-25 -94 -100.5 -146.5t-195.5 -52.5z" />
    <glyph glyph-name="eng" unicode="&#x14b;" horiz-adv-x="772" 
d="M306 -213q-92 0 -163 21l72 198q39 -12 66 -12q61 0 77 63l32 117q27 102 -54 102q-42 0 -75 -29.5t-43 -80.5l-32 -166h-276l134 500h281l-63 -180h13q40 89 108.5 142t146.5 53q110 0 147 -56.5t10 -157.5l-80 -298q-59 -216 -301 -216z" />
    <glyph glyph-name="Omacron" unicode="&#x14c;" horiz-adv-x="976" 
d="M-17 370q21 63 67 125.5t111.5 111t165.5 78.5t219 30q181 0 284 -67.5t103 -192.5q0 -50 -15 -102.5t-44 -105.5t-77.5 -100t-111 -83.5t-149 -57.5t-186.5 -21q-181 0 -284 68t-103 193q0 61 20 124zM363 892h461l-36 -136h-461zM323 332q54 -38 120.5 -61.5
t107.5 -23.5q34 0 54 14.5t20 36.5q0 34 -53.5 71.5t-119 60.5t-106.5 23q-34 0 -55.5 -14.5t-21.5 -36.5q0 -33 54 -70z" />
    <glyph glyph-name="omacron" unicode="&#x14d;" horiz-adv-x="734" 
d="M-5 352q62 78 161.5 120.5t213.5 42.5q140 0 218 -51t78 -143q0 -96 -61.5 -174t-161 -120t-215.5 -42q-139 0 -216.5 51t-77.5 141q0 96 61 175zM152 556l36 136h461l-36 -136h-461zM187 288q0 -27 72 -63t115 -36q39 0 39 24q0 29 -70.5 64t-116.5 35q-39 0 -39 -24z
" />
    <glyph glyph-name="Ohungarumlaut" unicode="&#x150;" horiz-adv-x="976" 
d="M-17 370q21 63 67 125.5t111.5 111t165.5 78.5t219 30q181 0 284 -67.5t103 -192.5q0 -50 -15 -102.5t-44 -105.5t-77.5 -100t-111 -83.5t-149 -57.5t-186.5 -21q-181 0 -284 68t-103 193q0 61 20 124zM323 332q54 -38 120.5 -61.5t107.5 -23.5q34 0 54 14.5t20 36.5
q0 34 -53.5 71.5t-119 60.5t-106.5 23q-34 0 -55.5 -14.5t-21.5 -36.5q0 -33 54 -70zM746 904h206l-172 -151h-198zM335 753l159 151h204l-165 -151h-198z" />
    <glyph glyph-name="ohungarumlaut" unicode="&#x151;" horiz-adv-x="734" 
d="M-5 352q62 78 161.5 120.5t213.5 42.5q140 0 218 -51t78 -143q0 -96 -61.5 -174t-161 -120t-215.5 -42q-139 0 -216.5 51t-77.5 141q0 96 61 175zM408 553l164 151h206l-172 -151h-198zM320 704h204l-165 -151h-198zM259 225q72 -36 115 -36q39 0 39 24q0 29 -70.5 64
t-116.5 35q-39 0 -39 -24q0 -27 72 -63z" />
    <glyph glyph-name="OE" unicode="&#x152;" horiz-adv-x="1468" 
d="M344 -15q-212 0 -313 94t-53 271q48 176 199 270.5t363 94.5q74 0 151 -15h776l-74 -278l-487 18l-13 -51l387 10l-27 -103l-383 10l-14 -54l524 18l-72 -270h-805q-77 -15 -159 -15zM445 276q85 0 136 17l31 113q-44 17 -128 17q-96 0 -156 -19.5t-70 -53.5
q-9 -35 40.5 -54.5t146.5 -19.5z" />
    <glyph glyph-name="oe" unicode="&#x153;" horiz-adv-x="1189" 
d="M183 -15q-141 0 -204.5 70.5t-30.5 193.5q33 124 134.5 195t242.5 71q102 0 165.5 -37.5t73.5 -105.5h12q45 69 129 106t183 37q138 0 196.5 -68t28.5 -180q-4 -21 -16 -39h-418q-4 -17 52.5 -29.5t121.5 -12.5q129 0 216 35l-50 -195q-108 -41 -250 -41q-112 0 -180 38
t-78 106h-12q-46 -69 -129.5 -106.5t-186.5 -37.5zM683 266h203q3 27 -21 42.5t-65 15.5q-85 0 -117 -58zM291 210q52 0 85.5 10.5t37.5 29.5q5 19 -22.5 30t-78.5 11q-50 0 -83.5 -11t-38.5 -30t22.5 -29.5t77.5 -10.5z" />
    <glyph glyph-name="Racute" unicode="&#x154;" horiz-adv-x="906" 
d="M-106 0l188 700h489q150 -1 230 -36.5t80 -117.5q0 -241 -412 -241l-5 -17h87q150 0 191 -57.5t42 -110.5q-1 -53 -28 -120h-355q28 52 43 95.5t15.5 62.5t0.5 21q0 34 -21.5 54t-66.5 20h-124l-47 -253h-307zM419 753l155 152h260l-254 -152h-161zM474 343q37 0 59.5 10
t22.5 28q0 17 -17.5 23t-54.5 6h-196l-17 -67h203z" />
    <glyph glyph-name="racute" unicode="&#x155;" horiz-adv-x="609" 
d="M-112 0l134 500h267l-63 -180h12q39 88 109.5 141.5t148.5 53.5q65 0 99 -26l-93 -284q-12 29 -46.5 50t-75.5 21q-87 0 -142 -42t-65 -100l-24 -134h-261zM112 553l155 152h260l-254 -152h-161z" />
    <glyph glyph-name="uni0156" unicode="&#x156;" horiz-adv-x="906" 
d="M82 700h489q150 -1 230 -36.5t80 -117.5q0 -241 -412 -241l-5 -17h87q150 0 191 -57.5t42 -110.5q-1 -53 -28 -120h-355q28 52 43 95.5t15.5 62.5t0.5 21q0 34 -21.5 54t-66.5 20h-124l-47 -253h-307zM126 -166q15 55 61.5 87t107.5 32q63 0 86 -30t23 -64q0 -21 -7 -46
q-22 -82 -85 -148.5t-134 -94.5l-46 79q31 13 64.5 35t42.5 38q-17 -5 -30 -5q-48 0 -68.5 26t-20.5 54q0 17 6 37zM271 343h203q37 0 59.5 10t22.5 28q0 17 -17.5 23t-54.5 6h-196z" />
    <glyph glyph-name="uni0157" unicode="&#x157;" horiz-adv-x="609" 
d="M-112 0l134 500h267l-63 -180h12q39 88 109.5 141.5t148.5 53.5q65 0 99 -26l-93 -284q-12 29 -46.5 50t-75.5 21q-87 0 -142 -42t-65 -100l-24 -134h-261zM-139 -166q15 55 61.5 87t107.5 32q63 0 86 -30t23 -64q0 -21 -7 -46q-22 -82 -85 -148.5t-134 -94.5l-46 79
q31 13 64.5 35t42.5 38q-17 -5 -30 -5q-48 0 -68.5 26t-20.5 54q0 17 6 37z" />
    <glyph glyph-name="Rcaron" unicode="&#x158;" horiz-adv-x="906" 
d="M-106 0l188 700h489q150 -1 230 -36.5t80 -117.5q0 -241 -412 -241l-5 -17h87q150 0 191 -57.5t42 -110.5q-1 -53 -28 -120h-355q28 52 43 95.5t15.5 62.5t0.5 21q0 34 -21.5 54t-66.5 20h-124l-47 -253h-307zM282 904h205l46 -63l80 63h203l-187 -152h-242zM474 343
q37 0 59.5 10t22.5 28q0 17 -17.5 23t-54.5 6h-196l-17 -67h203z" />
    <glyph glyph-name="rcaron" unicode="&#x159;" horiz-adv-x="609" 
d="M22 500h267l-63 -180h12q39 88 109.5 141.5t148.5 53.5q65 0 99 -26l-93 -284q-12 29 -46.5 50t-75.5 21q-87 0 -142 -42t-65 -100l-24 -134h-261zM180 704l46 -63l80 63h203l-187 -152h-242l-105 152h205z" />
    <glyph glyph-name="Sacute" unicode="&#x15a;" horiz-adv-x="909" 
d="M-14 374q53 -58 159.5 -90t247.5 -32q63 0 99 9.5t36 24.5q0 17 -52.5 23t-127 9.5t-149.5 13t-127.5 43t-52.5 89.5q0 68 43 119t115.5 78.5t154.5 40.5t173 13q93 0 212 -18.5t182 -47.5l-117 -282q-59 38 -149 60.5t-187 22.5q-145 0 -145 -30q0 -16 38 -23.5
t95.5 -8.5t124.5 -6.5t124.5 -16.5t95.5 -41t38 -76q0 -67 -42.5 -119t-113 -82.5t-155 -46t-176.5 -15.5q-94 0 -229 20t-200 47zM592 905h260l-254 -152h-161z" />
    <glyph glyph-name="sacute" unicode="&#x15b;" horiz-adv-x="647" 
d="M-60 247q55 -24 128.5 -38.5t130.5 -14.5q61 0 87.5 4t26.5 18q0 10 -35.5 14t-86 7t-101 10.5t-86 31.5t-35.5 64q0 59 56.5 99t136 56.5t171.5 16.5q131 0 242 -31l-54 -209q-33 19 -91.5 32t-123.5 13q-102 0 -102 -20q0 -8 35.5 -11.5t86 -8t100.5 -14t85.5 -35
t35.5 -64.5q0 -47 -34 -83.5t-90.5 -57.5t-121.5 -31t-134 -10q-59 0 -147.5 10t-140.5 23zM403 705h260l-254 -152h-161z" />
    <glyph glyph-name="Scedilla" unicode="&#x15e;" horiz-adv-x="909" 
d="M-99 52l85 322q53 -58 159.5 -90t247.5 -32q63 0 99 9.5t36 24.5q0 17 -52.5 23t-127 9.5t-149.5 13t-127.5 43t-52.5 89.5q0 68 43 119t115.5 78.5t154.5 40.5t173 13q93 0 212 -18.5t182 -47.5l-117 -282q-59 38 -149 60.5t-187 22.5q-145 0 -145 -30q0 -16 38 -23.5
t95.5 -8.5t124.5 -6.5t124.5 -16.5t95.5 -41t38 -76q0 -64 -39 -114.5t-104.5 -81.5t-144.5 -47.5t-167 -19.5l-31 -37q17 5 33 5q26 0 49.5 -13.5t23.5 -42.5q0 -11 -4 -23q-12 -47 -62.5 -72.5t-115.5 -25.5q-89 0 -132 34l41 68q44 -29 105 -29q52 0 58 27q1 3 1 5
q0 8 -7 12.5t-19 4.5q-2 0 -10.5 -0.5t-24.5 -8.5l-51 37l45 62q-96 6 -201 24t-159 40z" />
    <glyph glyph-name="scedilla" unicode="&#x15f;" horiz-adv-x="647" 
d="M-121 18l61 229q55 -24 128.5 -38.5t130.5 -14.5q61 0 87.5 4t26.5 18q0 10 -35.5 14t-86 7t-101 10.5t-86 31.5t-35.5 64q0 59 56.5 99t136 56.5t171.5 16.5q131 0 242 -31l-54 -209q-33 19 -91.5 32t-123.5 13q-102 0 -102 -20q0 -8 35.5 -11.5t86 -8t100.5 -14
t85.5 -35t35.5 -64.5q0 -56 -48 -96t-117 -59.5t-154 -24.5l-32 -39q17 5 33 5q26 0 49.5 -13.5t23.5 -42.5q0 -11 -4 -23q-12 -47 -62.5 -72.5t-115.5 -25.5q-89 0 -132 34l41 68q44 -29 105 -29q52 0 58 27q1 3 1 5q0 8 -7 12.5t-19 4.5q-2 0 -10.5 -0.5t-24.5 -8.5
l-51 37l44 60q-143 7 -246 32z" />
    <glyph glyph-name="Scaron" unicode="&#x160;" horiz-adv-x="909" 
d="M-14 374q53 -58 159.5 -90t247.5 -32q63 0 99 9.5t36 24.5q0 17 -52.5 23t-127 9.5t-149.5 13t-127.5 43t-52.5 89.5q0 68 43 119t115.5 78.5t154.5 40.5t173 13q93 0 212 -18.5t182 -47.5l-117 -282q-59 38 -149 60.5t-187 22.5q-145 0 -145 -30q0 -16 38 -23.5
t95.5 -8.5t124.5 -6.5t124.5 -16.5t95.5 -41t38 -76q0 -67 -42.5 -119t-113 -82.5t-155 -46t-176.5 -15.5q-94 0 -229 20t-200 47zM506 904l46 -63l80 63h203l-187 -152h-242l-105 152h205z" />
    <glyph glyph-name="scaron" unicode="&#x161;" horiz-adv-x="647" 
d="M-60 247q55 -24 128.5 -38.5t130.5 -14.5q61 0 87.5 4t26.5 18q0 10 -35.5 14t-86 7t-101 10.5t-86 31.5t-35.5 64q0 59 56.5 99t136 56.5t171.5 16.5q131 0 242 -31l-54 -209q-33 19 -91.5 32t-123.5 13q-102 0 -102 -20q0 -8 35.5 -11.5t86 -8t100.5 -14t85.5 -35
t35.5 -64.5q0 -47 -34 -83.5t-90.5 -57.5t-121.5 -31t-134 -10q-59 0 -147.5 10t-140.5 23zM112 704h205l46 -63l80 63h203l-187 -152h-242z" />
    <glyph glyph-name="uni0162" unicode="&#x162;" horiz-adv-x="812" 
d="M-10 396l83 304h774l-81 -304l-260 10l-90 -406h-90l-43 -52q17 5 33 5q26 0 49.5 -13.5t23.5 -42.5q0 -11 -4 -23q-12 -47 -62.5 -72.5t-115.5 -25.5q-89 0 -132 34l41 68q44 -29 105 -29q52 0 58 27q1 3 1 5q0 8 -7 12.5t-19 4.5q-2 0 -10.5 -0.5t-24.5 -8.5l-51 37
l54 74h-95l129 406z" />
    <glyph glyph-name="uni0163" unicode="&#x163;" horiz-adv-x="545" 
d="M5 500q202 0 253 184h155l-49 -184h169l-62 -231h-169l-3 -13q-1 -5 -1 -9q0 -13 15 -21.5t52 -8.5q35 0 91 17l-42 -213q-99 -36 -199 -36h-12l-30 -37q17 5 33 5q26 0 49.5 -13.5t23.5 -42.5q0 -11 -4 -23q-12 -47 -62.5 -72.5t-115.5 -25.5q-89 0 -132 34l41 68
q44 -29 105 -29q52 0 58 27q1 3 1 5q0 8 -7 12.5t-19 4.5q-2 0 -10.5 -0.5t-24.5 -8.5l-51 37l51 69q-105 26 -105 111q0 18 8 54l30 109h-98z" />
    <glyph glyph-name="Tcaron" unicode="&#x164;" horiz-adv-x="812" 
d="M-10 396l83 304h774l-81 -304l-260 10l-90 -406h-289l129 406zM453 904l46 -63l80 63h203l-187 -152h-242l-105 152h205z" />
    <glyph glyph-name="tcaron" unicode="&#x165;" horiz-adv-x="582" 
d="M5 500q202 0 253 184h155l-49 -184h169l-62 -231h-169l-3 -13q-1 -5 -1 -9q0 -13 15 -21.5t52 -8.5q35 0 91 17l-42 -213q-99 -36 -199 -36q-211 0 -211 121q0 18 8 54l30 109h-98zM482 780q12 48 53.5 76.5t94.5 28.5q54 0 74.5 -27t20.5 -57q0 -18 -6 -39
q-19 -72 -74 -130t-118 -84l-41 69q74 33 95 66q-13 -5 -27 -5q-42 0 -59.5 22.5t-17.5 47.5q0 15 5 32z" />
    <glyph glyph-name="Tbar" unicode="&#x166;" horiz-adv-x="812" 
d="M-10 396l83 304h774l-81 -304l-260 10l-20 -88h140l-22 -84h-137l-51 -234h-289l74 234h-135l23 84h140l27 88z" />
    <glyph glyph-name="tbar" unicode="&#x167;" horiz-adv-x="564" 
d="M534 500l-46 -172h-164l-8 -31h166l-14 -53h-166l-3 -13q-7 -25 8 -33.5t56 -8.5q45 0 96 25l-34 -193q-97 -36 -203 -36q-59 0 -102 10t-65 26t-34.5 37t-10.5 44t6 46l26 96h-97l15 53h96l8 31h-98l46 172q202 0 253 184h155l-50 -184h164z" />
    <glyph glyph-name="Umacron" unicode="&#x16a;" horiz-adv-x="898" 
d="M-24 312l104 388h306l-92 -259q-12 -31 -12 -59q0 -40 28.5 -63.5t83.5 -23.5q74 0 120.5 40.5t58.5 105.5l47 259h306l-104 -388q-41 -154 -175.5 -240.5t-335.5 -86.5q-169 0 -258.5 61t-89.5 173q0 45 13 93zM324 892h461l-36 -136h-461z" />
    <glyph glyph-name="umacron" unicode="&#x16b;" 
d="M-63 199l81 301h277l-69 -172q-14 -35 -14 -53q0 -51 68 -51q44 0 81 30t46 80l31 166h276l-134 -500h-281l63 180h-13q-40 -89 -108.5 -142t-146.5 -53q-86 0 -128 35t-42 98q0 32 13 81zM154 556l36 136h461l-36 -136h-461z" />
    <glyph glyph-name="Uring" unicode="&#x16e;" horiz-adv-x="898" 
d="M-37 219q0 45 13 93l104 388h306l-92 -259q-12 -31 -12 -59q0 -40 28.5 -63.5t83.5 -23.5q74 0 120.5 40.5t58.5 105.5l47 259h306l-104 -388q-41 -154 -175.5 -240.5t-335.5 -86.5q-169 0 -258.5 61t-89.5 173zM381 870q16 59 70.5 93.5t132.5 34.5q77 0 108 -29t31 -65
q0 -16 -5 -34q-16 -58 -70.5 -92t-131.5 -34q-78 0 -109 29t-31 64q0 15 5 33zM508 838q9 -13 29 -13q46 0 59 45q2 7 2 13q0 11 -8 21t-29 10t-37 -12t-19.5 -25.5t-3.5 -18.5q0 -12 7 -20z" />
    <glyph glyph-name="uring" unicode="&#x16f;" 
d="M-76 118q0 32 13 81l81 301h277l-69 -172q-14 -35 -14 -53q0 -51 68 -51q44 0 81 30t46 80l31 166h276l-134 -500h-281l63 180h-13q-40 -89 -108.5 -142t-146.5 -53q-86 0 -128 35t-42 98zM247 670q16 59 70.5 93.5t132.5 34.5q77 0 108 -29t31 -65q0 -16 -5 -34
q-16 -58 -70.5 -92t-131.5 -34q-78 0 -109 29t-31 64q0 15 5 33zM374 638q9 -13 29 -13q46 0 59 45q2 7 2 13q0 11 -8 21t-29 10t-37 -12t-19.5 -25.5t-3.5 -18.5q0 -12 7 -20z" />
    <glyph glyph-name="Uhungarumlaut" unicode="&#x170;" horiz-adv-x="898" 
d="M-24 312l104 388h306l-92 -259q-12 -31 -12 -59q0 -40 28.5 -63.5t83.5 -23.5q74 0 120.5 40.5t58.5 105.5l47 259h306l-104 -388q-41 -154 -175.5 -240.5t-335.5 -86.5q-169 0 -258.5 61t-89.5 173q0 45 13 93zM544 753l164 151h206l-172 -151h-198zM297 753l159 151
h204l-165 -151h-198z" />
    <glyph glyph-name="uhungarumlaut" unicode="&#x171;" 
d="M-63 199l81 301h277l-69 -172q-14 -35 -14 -53q0 -51 68 -51q44 0 81 30t46 80l31 166h276l-134 -500h-281l63 180h-13q-40 -89 -108.5 -142t-146.5 -53q-86 0 -128 35t-42 98q0 32 13 81zM410 553l164 151h206l-172 -151h-198zM322 704h204l-165 -151h-198z" />
    <glyph glyph-name="Uogonek" unicode="&#x172;" horiz-adv-x="898" 
d="M-37 219q0 45 13 93l104 388h306l-92 -259q-12 -31 -12 -59q0 -40 28.5 -63.5t83.5 -23.5q74 0 120.5 40.5t58.5 105.5l47 259h306l-104 -388q-38 -140 -153.5 -225t-290.5 -99q-73 -43 -85 -90q-2 -7 -2 -13q0 -15 11.5 -28t42.5 -13q9 0 19 2t18 4.5t14.5 5t11.5 4.5
l4 3l-2 -84q-23 -13 -69.5 -22.5t-83.5 -9.5q-71 0 -103 26.5t-32 64.5q0 16 5 36q16 61 92 116q-125 16 -190.5 74.5t-65.5 154.5z" />
    <glyph glyph-name="uogonek" unicode="&#x173;" 
d="M-63 199l81 301h277l-69 -172q-14 -35 -14 -53q0 -51 68 -51q44 0 81 30t46 80l31 166h276l-134 -500h-38q-39 -17 -74 -46t-43 -59q-1 -7 -1 -13q0 -15 11 -28.5t42 -13.5q29 0 67 19l-2 -84q-23 -13 -69.5 -22.5t-83.5 -9.5q-71 0 -103 26.5t-32 64.5q0 16 5 36
q8 31 38 66.5t73 63.5h-71l63 180h-13q-40 -89 -108.5 -142t-146.5 -53q-86 0 -128 35t-42 98q0 32 13 81z" />
    <glyph glyph-name="Wcircumflex" unicode="&#x174;" horiz-adv-x="1167" 
d="M54 700h378l-115 -418l16 -2l204 379h178v-379l18 2l110 418h378l-358 -700h-342l49 415h-18l-174 -415h-342zM385 752l187 152h242l105 -152h-203l-46 64l-80 -64h-205z" />
    <glyph glyph-name="wcircumflex" unicode="&#x175;" horiz-adv-x="1067" 
d="M6 500h385l-122 -285l17 -1l180 262h123l37 -262l20 1l30 285h385l-236 -500h-351l5 273h-13l-141 -273h-351zM468 704h242l105 -152h-203l-46 64l-80 -64h-205z" />
    <glyph glyph-name="Ycircumflex" unicode="&#x176;" horiz-adv-x="937" 
d="M448 700l-8 -272h19l137 272h393l-441 -434l-51 -266h-324l92 266l-209 434h392zM269 752l187 152h242l105 -152h-203l-46 64l-80 -64h-205z" />
    <glyph glyph-name="ycircumflex" unicode="&#x177;" 
d="M-50 8q72 -22 171 -22q73 0 135.5 36t85.5 103l20 55h-13q-40 -88 -95 -128.5t-135 -40.5q-92 0 -140 36t-48 100q0 28 11 70l76 283h277l-70 -172q-13 -32 -13 -53q0 -51 68 -51q45 0 82.5 30t44.5 80l24 166h283l-111 -405q-19 -71 -55.5 -124.5t-98 -97t-156.5 -66
t-221 -22.5q-41 0 -165 13zM121 552l187 152h242l105 -152h-203l-46 64l-80 -64h-205z" />
    <glyph glyph-name="Ydieresis" unicode="&#x178;" horiz-adv-x="937" 
d="M56 700h392l-8 -272h19l137 272h393l-441 -434l-51 -266h-324l92 266zM318 843q13 44 50 68.5t88 24.5q50 0 70 -21t20 -45q0 -13 -4 -27q-11 -43 -48 -68q-38 -25 -88 -25t-70.5 21.5t-20.5 47.5q0 11 3 24zM580 843q12 43 49 68t87 25q51 0 71 -20.5t20 -44.5
q0 -13 -5 -28q-11 -43 -48 -68t-87 -25t-70.5 21.5t-20.5 45.5q0 12 4 26z" />
    <glyph glyph-name="Zacute" unicode="&#x179;" horiz-adv-x="878" 
d="M603 753h-160l154 152h261zM808 314l-84 -314h-838l59 219l430 178v17l-371 -37l86 323h787l-57 -213l-427 -192v-17z" />
    <glyph glyph-name="zacute" unicode="&#x17a;" horiz-adv-x="677" 
d="M424 553h-161l155 152h260zM588 220l-59 -220h-648l50 184l296 97h-271l59 219h616l-49 -183l-299 -97h305z" />
    <glyph glyph-name="Zdotaccent" unicode="&#x17b;" horiz-adv-x="878" 
d="M-114 0l59 219l430 178v17l-371 -37l86 323h787l-57 -213l-427 -192v-17l415 36l-84 -314h-838zM446 844q11 43 48.5 68t87.5 25t70 -21t20 -47q0 -11 -3 -25q-12 -43 -49.5 -68t-86.5 -25q-51 0 -71 21.5t-20 45.5q0 12 4 26z" />
    <glyph glyph-name="zdotaccent" unicode="&#x17c;" horiz-adv-x="677" 
d="M-119 0l50 184l296 97h-271l59 219h616l-49 -183l-299 -97h305l-59 -220h-648zM266 644q11 43 48.5 68t87.5 25t70 -21t20 -47q0 -11 -3 -25q-12 -43 -49.5 -68t-86.5 -25q-51 0 -71 21.5t-20 45.5q0 12 4 26z" />
    <glyph glyph-name="Zcaron" unicode="&#x17d;" horiz-adv-x="878" 
d="M-55 219l430 178v17l-371 -37l86 323h787l-57 -213l-427 -192v-17l415 36l-84 -314h-838zM511 904l46 -63l80 63h204l-187 -152h-243l-105 152h205z" />
    <glyph glyph-name="zcaron" unicode="&#x17e;" horiz-adv-x="677" 
d="M-119 0l50 184l296 97h-271l59 219h616l-49 -183l-299 -97h305l-59 -220h-648zM127 704h205l46 -63l80 63h203l-187 -152h-242z" />
    <glyph glyph-name="florin" unicode="&#x192;" horiz-adv-x="441" 
d="M36 -148h-198l188 393h-47l41 152h78l57 118q36 77 107.5 123.5t152.5 46.5q67 0 102 -27l-46 -171q-17 25 -66 25q-52 0 -74 -46l-34 -69h90l-41 -152h-121z" />
    <glyph glyph-name="uni0218" unicode="&#x218;" horiz-adv-x="909" 
d="M-14 374q53 -58 159.5 -90t247.5 -32q63 0 99 9.5t36 24.5q0 17 -52.5 23t-127 9.5t-149.5 13t-127.5 43t-52.5 89.5q0 68 43 119t115.5 78.5t154.5 40.5t173 13q93 0 212 -18.5t182 -47.5l-117 -282q-59 38 -149 60.5t-187 22.5q-145 0 -145 -30q0 -16 38 -23.5
t95.5 -8.5t124.5 -6.5t124.5 -16.5t95.5 -41t38 -76q0 -67 -42.5 -119t-113 -82.5t-155 -46t-176.5 -15.5q-94 0 -229 20t-200 47zM140 -166q15 55 61.5 87t107.5 32q63 0 86 -30t23 -64q0 -21 -7 -46q-22 -82 -85 -148.5t-134 -94.5l-46 79q31 13 64.5 35t42.5 38
q-17 -5 -30 -5q-48 0 -68.5 26t-20.5 54q0 17 6 37z" />
    <glyph glyph-name="uni0219" unicode="&#x219;" horiz-adv-x="647" 
d="M-60 247q55 -24 128.5 -38.5t130.5 -14.5q61 0 87.5 4t26.5 18q0 10 -35.5 14t-86 7t-101 10.5t-86 31.5t-35.5 64q0 59 56.5 99t136 56.5t171.5 16.5q131 0 242 -31l-54 -209q-33 19 -91.5 32t-123.5 13q-102 0 -102 -20q0 -8 35.5 -11.5t86 -8t100.5 -14t85.5 -35
t35.5 -64.5q0 -47 -34 -83.5t-90.5 -57.5t-121.5 -31t-134 -10q-59 0 -147.5 10t-140.5 23zM5 -166q15 55 61.5 87t107.5 32q63 0 86 -30t23 -64q0 -21 -7 -46q-22 -82 -85 -148.5t-134 -94.5l-46 79q31 13 64.5 35t42.5 38q-17 -5 -30 -5q-48 0 -68.5 26t-20.5 54
q0 17 6 37z" />
    <glyph glyph-name="uni021A" unicode="&#x21a;" horiz-adv-x="812" 
d="M-10 396l83 304h774l-81 -304l-260 10l-90 -406h-289l129 406zM92 -166q15 55 61.5 87t107.5 32q63 0 86 -30t23 -64q0 -21 -7 -46q-22 -82 -85 -148.5t-134 -94.5l-46 79q31 13 64.5 35t42.5 38q-17 -5 -30 -5q-48 0 -68.5 26t-20.5 54q0 17 6 37z" />
    <glyph glyph-name="uni021B" unicode="&#x21b;" horiz-adv-x="545" 
d="M-56 269l61 231q202 0 253 184h155l-49 -184h169l-62 -231h-169l-3 -13q-1 -5 -1 -9q0 -13 15 -21.5t52 -8.5q35 0 91 17l-42 -213q-99 -36 -199 -36q-211 0 -211 121q0 18 8 54l30 109h-98zM-18 -166q15 55 61.5 87t107.5 32q63 0 86 -30t23 -64q0 -21 -7 -46
q-22 -82 -85 -148.5t-134 -94.5l-46 79q31 13 64.5 35t42.5 38q-17 -5 -30 -5q-48 0 -68.5 26t-20.5 54q0 17 6 37z" />
    <glyph glyph-name="uni0237" unicode="&#x237;" horiz-adv-x="454" 
d="M-12 -213q-91 0 -162 21l73 204q42 -11 67 -11q30 0 50.5 17t28.5 46l54 203h-109l62 233h370l-133 -497q-27 -100 -100.5 -158t-200.5 -58z" />
    <glyph glyph-name="gravecomb" unicode="&#x300;" horiz-adv-x="0" 
d="M4 553h-161l-172 152h260z" />
    <glyph glyph-name="acutecomb" unicode="&#x301;" horiz-adv-x="0" 
d="M-209 553h-161l155 152h260z" />
    <glyph glyph-name="uni0302" unicode="&#x302;" horiz-adv-x="0" 
d="M-343 704h242l105 -152h-203l-46 64l-80 -64h-205z" />
    <glyph glyph-name="tildecomb" unicode="&#x303;" horiz-adv-x="0" 
d="M-437 588q21 68 67.5 106t103.5 38q42 0 92 -27q39 -21 61 -21q21 0 34 10t23 40l104 -18q-45 -145 -170 -145q-43 0 -99 29q-37 19 -57 19q-36 0 -55 -52z" />
    <glyph glyph-name="uni0304" unicode="&#x304;" horiz-adv-x="0" 
d="M5 556h-461l36 136h461z" />
    <glyph glyph-name="uni0306" unicode="&#x306;" horiz-adv-x="0" 
d="M-358 716h131q-2 -7 -2 -14q0 -16 14 -30.5t44 -14.5q31 0 56 17t33 42h130q-19 -70 -91 -119t-158 -49t-124.5 41.5t-38.5 86.5q0 19 6 40z" />
    <glyph glyph-name="uni0307" unicode="&#x307;" horiz-adv-x="0" 
d="M-194 644q11 43 48.5 68t87.5 25t70 -21t20 -47q0 -11 -3 -25q-12 -43 -49.5 -68t-86.5 -25q-51 0 -71 21.5t-20 45.5q0 12 4 26z" />
    <glyph glyph-name="uni0308" unicode="&#x308;" horiz-adv-x="0" 
d="M-471 643q13 44 50 68.5t88 24.5q50 0 70 -21t20 -45q0 -13 -4 -27q-11 -43 -49 -68q-37 -25 -87 -25t-70.5 21.5t-20.5 47.5q0 11 3 24zM-209 643q12 43 49 68t87 25q51 0 71 -20.5t20 -44.5q0 -13 -5 -28q-11 -43 -48 -68t-87 -25t-70.5 21.5t-20.5 45.5q0 12 4 26z
" />
    <glyph glyph-name="uni030A" unicode="&#x30a;" horiz-adv-x="0" 
d="M-301 670q16 59 70.5 93.5t132.5 34.5q77 0 108 -29t31 -65q0 -16 -5 -34q-16 -58 -70.5 -92t-131.5 -34q-78 0 -109 29t-31 64q0 15 5 33zM-175 638q10 -13 30 -13q46 0 59 45q2 7 2 13q0 11 -8 21t-29 10t-37 -12t-19.5 -25.5t-3.5 -19.5q0 -11 6 -19z" />
    <glyph glyph-name="uni030B" unicode="&#x30b;" horiz-adv-x="0" 
d="M-181 704h206l-172 -151h-198zM-433 704h204l-165 -151h-198z" />
    <glyph glyph-name="uni030C" unicode="&#x30c;" horiz-adv-x="0" 
d="M-284 704l46 -63l80 63h203l-187 -152h-242l-105 152h205z" />
    <glyph glyph-name="uni0312" unicode="&#x312;" horiz-adv-x="0" 
d="M-238 686q22 82 85 148t134 94l46 -79q-31 -13 -64 -34.5t-43 -37.5q22 4 30 4q48 0 68.5 -26.5t20.5 -54.5q0 -16 -5 -35q-15 -55 -62 -87t-108 -32q-63 0 -86 30t-23 64q0 21 7 46z" />
    <glyph glyph-name="uni0326" unicode="&#x326;" horiz-adv-x="0" 
d="M-466 -166q15 55 61.5 87t107.5 32q63 0 86 -30t23 -64q0 -21 -7 -46q-22 -82 -85 -148.5t-134 -94.5l-46 79q31 13 64.5 35t42.5 38q-17 -5 -30 -5q-48 0 -68.5 26t-20.5 54q0 17 6 37z" />
    <glyph glyph-name="uni0327" unicode="&#x327;" horiz-adv-x="0" 
d="M-447 -122q44 -29 105 -29q52 0 58 27q1 3 1 5q0 8 -7 12.5t-19 4.5q-2 0 -10.5 -0.5t-24.5 -8.5l-51 37l61 83h104l-50 -61q17 5 33 5q26 0 49.5 -13.5t23.5 -42.5q0 -11 -4 -23q-12 -47 -62.5 -72.5t-115.5 -25.5q-89 0 -132 34z" />
    <glyph glyph-name="uni0328" unicode="&#x328;" horiz-adv-x="0" 
d="M-488 -130q13 48 71 99.5t129 71.5l83 -41q-39 -18 -74 -46.5t-43 -59.5q-2 -7 -2 -14q0 -15 11.5 -27.5t42.5 -12.5q29 0 67 19l-2 -84q-23 -13 -69.5 -22.5t-83.5 -9.5q-71 0 -103 26.5t-32 64.5q0 16 5 36z" />
    <glyph glyph-name="uni0374" unicode="&#x374;" horiz-adv-x="359" 
d="M172 554h-140l92 176h226z" />
    <glyph glyph-name="uni0375" unicode="&#x375;" horiz-adv-x="359" 
d="M-26 -189h-140l92 177h225z" />
    <glyph glyph-name="uni037E" unicode="&#x37e;" horiz-adv-x="361" 
d="M135 321q-61 0 -91.5 32t-15.5 88q15 55 62.5 87t108.5 32t91.5 -32t15.5 -88q-15 -55 -62.5 -87t-108.5 -32zM-9 -158l-45 79q32 14 65 36t41 37q-15 -5 -29 -5q-48 0 -73 32t-11 85q16 55 62.5 87t107.5 32q62 0 91 -38t11 -102q-23 -82 -86 -148.5t-134 -94.5z" />
    <glyph glyph-name="anoteleia" unicode="&#x387;" horiz-adv-x="341" 
d="M98 230q-61 0 -91 38t-15 96q16 57 66.5 94.5t111.5 37.5t91 -37.5t14 -95.5q-15 -57 -65.5 -95t-111.5 -38z" />
    <glyph glyph-name="Wgrave" unicode="&#x1e80;" horiz-adv-x="1167" 
d="M54 700h378l-115 -418l16 -2l204 379h178v-379l18 2l110 418h378l-358 -700h-342l49 415h-18l-174 -415h-342zM674 905l73 -152h-161l-172 152h260z" />
    <glyph glyph-name="wgrave" unicode="&#x1e81;" horiz-adv-x="1067" 
d="M6 500h385l-122 -285l17 -1l180 262h123l37 -262l20 1l30 285h385l-236 -500h-351l5 273h-13l-141 -273h-351zM570 705l73 -152h-161l-172 152h260z" />
    <glyph glyph-name="Wacute" unicode="&#x1e82;" horiz-adv-x="1167" 
d="M36 0l18 700h378l-115 -418l16 -2l204 379h178v-379l18 2l110 418h378l-358 -700h-342l49 415h-18l-174 -415h-342zM562 753l155 152h260l-254 -152h-161z" />
    <glyph glyph-name="wacute" unicode="&#x1e83;" horiz-adv-x="1067" 
d="M-26 0l32 500h385l-122 -285l17 -1l180 262h123l37 -262l20 1l30 285h385l-236 -500h-351l5 273h-13l-141 -273h-351zM458 553l155 152h260l-254 -152h-161z" />
    <glyph glyph-name="Wdieresis" unicode="&#x1e84;" horiz-adv-x="1167" 
d="M54 700h378l-115 -418l16 -2l204 379h178v-379l18 2l110 418h378l-358 -700h-342l49 415h-18l-174 -415h-342zM433 843q13 44 50 68.5t88 24.5q50 0 70 -21t20 -45q0 -13 -4 -27q-11 -43 -48 -68q-38 -25 -88 -25t-70.5 21.5t-20.5 47.5q0 11 3 24zM695 843q12 43 49 68
t87 25q51 0 71 -20.5t20 -44.5q0 -13 -5 -28q-11 -43 -48 -68t-87 -25t-70.5 21.5t-20.5 45.5q0 12 4 26z" />
    <glyph glyph-name="wdieresis" unicode="&#x1e85;" horiz-adv-x="1067" 
d="M6 500h385l-122 -285l17 -1l180 262h123l37 -262l20 1l30 285h385l-236 -500h-351l5 273h-13l-141 -273h-351zM329 643q13 44 50 68.5t88 24.5q50 0 70 -21t20 -45q0 -13 -4 -27q-11 -43 -48 -68q-38 -25 -88 -25t-70.5 21.5t-20.5 47.5q0 11 3 24zM591 643q12 43 49 68
t87 25q51 0 71 -20.5t20 -44.5q0 -13 -5 -28q-11 -43 -48 -68t-87 -25t-70.5 21.5t-20.5 45.5q0 12 4 26z" />
    <glyph glyph-name="Germandbls" unicode="&#x1e9e;" horiz-adv-x="921" 
d="M413 -15q-90 0 -176 19l67 252q31 -6 104 -6q110 0 121 42q3 11 -4.5 20t-33 16t-66.5 7h-91l17 62l181 41l5 17h-227l-121 -455h-305l188 700h811l-65 -241l-232 -66l-4 -13q137 0 198.5 -50t39.5 -131q-27 -100 -134 -157t-273 -57z" />
    <glyph glyph-name="Ygrave" unicode="&#x1ef2;" horiz-adv-x="937" 
d="M448 700l-8 -272h19l137 272h393l-441 -434l-51 -266h-324l92 266l-209 434h392zM298 905h260l73 -152h-161z" />
    <glyph glyph-name="ygrave" unicode="&#x1ef3;" 
d="M-50 8q72 -22 171 -22q73 0 135.5 36t85.5 103l20 55h-13q-40 -88 -95 -128.5t-135 -40.5q-92 0 -140 36t-48 100q0 28 11 70l76 283h277l-70 -172q-13 -32 -13 -53q0 -51 68 -51q45 0 82.5 30t44.5 80l24 166h283l-111 -405q-19 -71 -55.5 -124.5t-98 -97t-156.5 -66
t-221 -22.5q-41 0 -165 13zM410 705l73 -152h-161l-172 152h260z" />
    <glyph glyph-name="endash" unicode="&#x2013;" horiz-adv-x="574" 
d="M454 163h-514l42 158h514z" />
    <glyph glyph-name="emdash" unicode="&#x2014;" horiz-adv-x="806" 
d="M685 163h-745l42 158h746z" />
    <glyph glyph-name="uni2015" unicode="&#x2015;" horiz-adv-x="574" 
d="M454 163h-514l42 158h514z" />
    <glyph glyph-name="quoteleft" unicode="&#x2018;" horiz-adv-x="363" 
d="M135 332q-62 0 -91 37.5t-12 101.5q23 83 86 149t134 94l46 -79q-32 -14 -65 -35.5t-42 -36.5q20 4 30 4q48 0 73 -32t11 -84q-15 -55 -62 -87t-108 -32z" />
    <glyph glyph-name="quoteright" unicode="&#x2019;" horiz-adv-x="363" 
d="M116 308l-45 79q31 13 64 34.5t42 37.5q-18 -4 -30 -4q-47 0 -72 32t-11 84q15 55 62 87t108 32q62 0 90.5 -37.5t11.5 -102.5q-23 -82 -86 -148t-134 -94z" />
    <glyph glyph-name="quotesinglbase" unicode="&#x201a;" horiz-adv-x="361" 
d="M-10 -159l-45 79q32 14 65 36t41 37q-15 -5 -29 -5q-48 0 -73 32.5t-11 84.5q15 55 62 87t108 32q63 0 91.5 -37.5t10.5 -102.5q-23 -82 -86 -148t-134 -95z" />
    <glyph glyph-name="quotedblleft" unicode="&#x201c;" horiz-adv-x="675" 
d="M134 332q-62 0 -90.5 37.5t-11.5 101.5q23 83 86 149t134 94l46 -79q-32 -14 -65 -35.5t-42 -36.5q20 4 30 4q47 0 72 -32t11 -84q-15 -55 -62 -87t-108 -32zM447 332q-62 0 -91 37.5t-12 101.5q23 83 86 149t134 94l46 -79q-31 -14 -64 -35.5t-42 -36.5q20 4 29 4
q48 0 73 -32t11 -84q-15 -55 -62 -87t-108 -32z" />
    <glyph glyph-name="quotedblright" unicode="&#x201d;" horiz-adv-x="675" 
d="M116 308l-45 79q31 13 64 34.5t42 37.5q-18 -4 -30 -4q-47 0 -72 32t-11 84q15 55 62 87t108 32q62 0 90.5 -37.5t11.5 -102.5q-23 -82 -86 -148t-134 -94zM429 308l-46 79q31 13 64.5 35t41.5 37q-18 -4 -29 -4q-48 0 -73 32t-11 84q15 55 62 87t108 32q63 0 91.5 -37.5
t10.5 -102.5q-23 -82 -85.5 -148t-133.5 -94z" />
    <glyph glyph-name="quotedblbase" unicode="&#x201e;" horiz-adv-x="667" 
d="M-16 -159l-46 79q32 14 65 36t41 37q-15 -5 -29 -5q-48 0 -73 32.5t-11 84.5q15 55 62 87t108 32q63 0 91.5 -37.5t10.5 -102.5q-22 -82 -85 -148t-134 -95zM304 -159l-46 79q32 14 65 36t42 37q-17 -5 -30 -5q-48 0 -73 32.5t-11 84.5q15 55 62 87t108 32
q63 0 91.5 -37.5t10.5 -102.5q-22 -82 -85 -148t-134 -95z" />
    <glyph glyph-name="dagger" unicode="&#x2020;" horiz-adv-x="292" 
d="M142 327h-84l56 192l-90 -4l21 77l88 -3l18 88h84l-27 -88l90 3l-21 -77l-87 4z" />
    <glyph glyph-name="daggerdbl" unicode="&#x2021;" horiz-adv-x="292" 
d="M102 180h-84l28 90l-89 -3l21 77l87 -4l48 179l-89 -4l21 77l87 -3l19 88h84l-27 -88l90 3l-21 -77l-87 4l-48 -179l90 4l-21 -77l-88 3z" />
    <glyph glyph-name="bullet" unicode="&#x2022;" horiz-adv-x="372" 
d="M84 115q-53 0 -80.5 37t-13.5 90t61.5 90.5t100.5 37.5t80.5 -37.5t13.5 -90.5t-61.5 -90t-100.5 -37z" />
    <glyph glyph-name="ellipsis" unicode="&#x2026;" horiz-adv-x="1106" 
d="M47 -10q-61 0 -91.5 32t-15.5 88q15 55 62.5 87t108.5 32t91 -32t15 -88q-15 -55 -62 -87t-108 -32zM417 -10q-61 0 -91.5 32t-15.5 88q15 55 62.5 87t108.5 32t91 -32t15 -88q-15 -55 -62 -87t-108 -32zM787 -10q-61 0 -91.5 32t-15.5 88q15 55 62.5 87t108.5 32t91 -32
t15 -88q-15 -55 -62 -87t-108 -32z" />
    <glyph glyph-name="perthousand" unicode="&#x2030;" horiz-adv-x="1391" 
d="M169 307q-86 0 -128 57t-19 145q24 89 96.5 145.5t159.5 56.5t129 -56.5t18 -145.5q-23 -88 -96 -145t-160 -57zM274 0h-186l582 700h185zM204 434q28 0 52.5 21t33.5 54q10 34 -3.5 54.5t-42.5 20.5t-53.5 -20.5t-34.5 -54.5q-9 -33 5 -54t43 -21zM666 -11
q-87 0 -128.5 56.5t-18.5 145.5q23 88 96 145t160 57q86 0 128 -57t19 -145q-24 -89 -96.5 -145.5t-159.5 -56.5zM1116 -11q-87 0 -129 56.5t-18 145.5q23 88 95.5 145t159.5 57t129 -57t18 -145q-23 -89 -95.5 -145.5t-159.5 -56.5zM701 116q29 0 53 20.5t34 54.5
q9 33 -4.5 54t-42.5 21t-53.5 -20.5t-33.5 -54.5q-10 -34 4 -54.5t43 -20.5zM1150 116q29 0 53.5 20.5t33.5 54.5q9 33 -4.5 54t-42.5 21t-53.5 -20.5t-33.5 -54.5t5 -54.5t42 -20.5z" />
    <glyph glyph-name="minute" unicode="&#x2032;" horiz-adv-x="298" 
d="M175 428h-153l137 272h151z" />
    <glyph glyph-name="second" unicode="&#x2033;" horiz-adv-x="527" 
d="M175 428h-153l137 272h151zM403 428h-152l136 272h152z" />
    <glyph glyph-name="guilsinglleft" unicode="&#x2039;" horiz-adv-x="431" 
d="M287 76h-199l-104 250l238 250h199l-242 -250z" />
    <glyph glyph-name="guilsinglright" unicode="&#x203a;" horiz-adv-x="431" 
d="M115 76h-199l243 250l-109 250h199l105 -250z" />
    <glyph glyph-name="uni203D" unicode="&#x203d;" horiz-adv-x="680" 
d="M336 267h-220l33 204h253l-28 -81q52 16 65 64q9 33 -29.5 56t-101.5 23t-130 -12t-98 -21.5t-43 -15.5l51 190q116 37 276 37t243.5 -52.5t58.5 -142.5q-21 -80 -102.5 -127.5t-205.5 -61.5zM161 -11q-60 1 -88.5 31.5t-14.5 83.5t59 84.5t106 31.5t89 -31.5t13 -84.5
q-15 -54 -59.5 -84.5t-104.5 -30.5z" />
    <glyph glyph-name="uni20A8" unicode="&#x20a8;" horiz-adv-x="723" 
d="M542 0h-251l-127 163h-260l46 174h312q79 0 109 49h-407l22 84h405q-7 48 -96 48h-294l49 182h712l-47 -173h-118q16 -25 16 -57h87l-22 -84h-94q-18 -68 -74.5 -120t-117.5 -66z" />
    <glyph glyph-name="Euro" unicode="&#x20ac;" horiz-adv-x="949" 
d="M467 -7q-222 0 -332 67t-111 193h-140l23 84h128q10 40 11 41h-128l22 84h143q144 253 579 253q187 0 288 -33l-57 -209q-21 26 -97 45t-150 19q-168 0 -258 -75h312l-23 -84h-351q-12 -25 -11 -41h351l-23 -84h-319q45 -82 224 -82q79 0 171 19.5t131 48.5l-55 -211
q-123 -35 -328 -35z" />
    <glyph glyph-name="uni2113" unicode="&#x2113;" horiz-adv-x="467" 
d="M145 -15q-181 0 -139 158l4 14q-18 -6 -45 -11l27 100q7 2 22 6.5t23 6.5l75 278q54 178 233 178q82 0 110 -48t6 -130q-32 -117 -93 -190q-57 -72 -163 -123l-7 -26q-10 -40 0 -53.5t48 -13.5q28 0 47 3l-37 -137q-46 -12 -111 -12zM293 552l-53 -196q39 35 58 77
q21 43 40 117q16 53 -9 53q-24 0 -36 -51z" />
    <glyph glyph-name="uni2116" unicode="&#x2116;" horiz-adv-x="842" 
d="M634 397q-70 0 -102 44.5t-13 114.5q19 69 76.5 114t126.5 45t101.5 -45.5t13.5 -114.5q-20 -69 -77.5 -113.5t-125.5 -44.5zM125 0h-231l194 700h170l-14 -305l11 2l52 303h220l-195 -700h-163l42 430l-11 -2zM660 491q24 0 45 18.5t29 46.5t-3 46t-36 18
q-24 0 -44.5 -18t-28.5 -46q-8 -29 2.5 -47t35.5 -18zM736 265h-278l25 91h278z" />
    <glyph glyph-name="uni2117" unicode="&#x2117;" horiz-adv-x="898" 
d="M309 -17q-193 0 -277.5 102.5t-42.5 261.5t183.5 262.5t334.5 103.5t277.5 -102.5t42.5 -261.5q-42 -160 -183 -263t-335 -103zM330 59q158 0 268 82.5t143 207.5q34 125 -31.5 206.5t-222.5 81.5q-158 0 -267.5 -82.5t-143.5 -207.5t31.5 -206.5t222.5 -81.5zM304 168
h-135l103 386h238q80 0 125 -32.5t26 -103.5q-16 -60 -72.5 -104t-148.5 -44h-108zM381 452l-23 -83h100q55 0 67 42q5 21 -7 31t-37 10h-100z" />
    <glyph glyph-name="trademark" unicode="&#x2122;" horiz-adv-x="552" 
d="M120 447h-65l52 194h-73l16 59h211l-16 -59h-73zM300 447h-65l68 253h83l21 -146l102 146h83l-68 -253h-65l42 157l-105 -157h-34l-20 157z" />
    <glyph glyph-name="estimated" unicode="&#x212e;" horiz-adv-x="715" 
d="M220 -11q-150 0 -221 102t-29 259t168 259t276 102q151 0 222 -102t29 -259l-4 -16h-549l-56 -207q60 -79 180 -79q143 0 254 106l32 -41q-132 -124 -302 -124zM176 573l-48 -178h403l48 178q-60 78 -182 78q-119 0 -221 -78z" />
    <glyph glyph-name="minus" unicode="&#x2212;" horiz-adv-x="600" 
d="M529 264h-584l45 169h584z" />
    <glyph glyph-name="uni2215" unicode="&#x2215;" horiz-adv-x="402" 
d="M24 0h-191l477 700h189z" />
    <glyph glyph-name="uni2219" unicode="&#x2219;" horiz-adv-x="333" 
d="M115 310q-49 0 -77.5 30t-17.5 70q10 40 54.5 69t93.5 29q50 0 78.5 -29t18.5 -69q-11 -41 -55.5 -70.5t-94.5 -29.5z" />
    <glyph glyph-name="infinity" unicode="&#x221e;" horiz-adv-x="980" 
d="M156 123q-107 0 -162 59t-31 150q26 96 114.5 153.5t191.5 57.5q123 0 202 -105q142 105 265 105q106 0 160.5 -60t30.5 -151q-26 -96 -113.5 -152.5t-190.5 -56.5q-126 0 -208 103q-135 -103 -259 -103zM224 272q10 0 19 1.5t16 3t16.5 6.5t14 7t15.5 9.5t13.5 9.5
t15.5 11.5t15 11.5q-16 23 -24 32.5t-26.5 19t-42.5 9.5q-74 0 -90 -61q-8 -31 8.5 -45.5t49.5 -14.5zM636 272q71 0 87 60q16 61 -55 61q-9 0 -17 -1t-16.5 -3.5t-14 -4t-14.5 -6.5t-13 -7t-14 -9t-13 -9t-14 -10.5t-14 -10.5q18 -23 26 -31.5t27.5 -18.5t44.5 -10z" />
    <glyph glyph-name="approxequal" unicode="&#x2248;" horiz-adv-x="657" 
d="M98 371l-47 160q76 74 179 74q48 0 112.5 -19.5t97.5 -19.5q67 0 115 40l47 -159q-77 -75 -178 -75q-47 0 -113.5 19.5t-97.5 19.5q-55 0 -115 -40zM23 93l-46 160q76 74 178 74q48 0 112.5 -19.5t97.5 -19.5q68 0 115 40l47 -159q-77 -75 -177 -75q-47 0 -113.5 20
t-96.5 20q-54 0 -117 -41z" />
    <glyph glyph-name="notequal" unicode="&#x2260;" horiz-adv-x="695" 
d="M154 142l-149 -151l-54 49l100 102h-118l44 164h239l81 83h-297l43 162h416l146 148l55 -49l-98 -99h117l-43 -162h-237l-80 -83h295l-44 -164h-416z" />
    <glyph glyph-name="lessequal" unicode="&#x2264;" horiz-adv-x="556" 
d="M483 335l-41 -153l-480 120l48 177l543 120l-41 -153l-323 -55zM392 0h-511l39 145h511z" />
    <glyph glyph-name="greaterequal" unicode="&#x2265;" horiz-adv-x="556" 
d="M473 302l-543 -120l41 153l323 55l-294 56l41 153l480 -120zM393 0h-512l39 145h511z" />
    <glyph glyph-name="lozenge" unicode="&#x25ca;" horiz-adv-x="693" 
d="M267 0h-124l-185 350l373 350h124l200 -350zM201 349l65 -123l138 124l-71 129z" />
    <glyph glyph-name="i.loclTRK" horiz-adv-x="416" 
d="M-51 267l63 233h354l-134 -500h-260l71 267h-94zM132 644q11 43 48.5 68t87.5 25t70 -21t20 -47q0 -11 -3 -25q-12 -43 -49.5 -68t-86.5 -25q-51 0 -71 21.5t-20 45.5q0 12 4 26z" />
    <glyph glyph-name="T_h" horiz-adv-x="1443" 
d="M1217 515q109 0 145.5 -57t9.5 -157l-81 -301h-276l66 166q20 46 7 78t-58 32q-44 0 -80.5 -31t-46.5 -79l-31 -166h-269l107 398l-204 8l-90 -406h-289l129 406l-266 -10l83 304h1010l-135 -380h13q40 89 108 142t148 53z" />
    <glyph glyph-name="f_f_j" horiz-adv-x="1416" 
d="M965 -213q-91 0 -162 21l64 170q39 -12 66 -12q62 0 80 63l64 238l-264 4l-61 -271h-272l75 277h-261l-62 -277h-272l75 277l-91 -8l62 231l88 -1l12 45q24 91 106 140.5t200 49.5q77 0 151 -24l-63 -172q-30 13 -65 13q-74 0 -81 -25l-8 -27h268l12 45q24 91 106 140.5
t200 49.5q77 0 151 -24l-63 -172q-30 13 -65 13q-74 0 -81 -25l-8 -27l533 1l-133 -497q-27 -100 -100.5 -158t-200.5 -58zM1254 528q-67 0 -100 28t-20 74q12 46 59.5 74t115.5 28q67 0 100 -28t20 -74q-12 -46 -60 -74t-115 -28z" />
    <glyph glyph-name="f_j" horiz-adv-x="896" 
d="M445 -213q-91 0 -162 21l64 170q39 -12 66 -12q62 0 80 63l64 238l-264 5l-61 -272h-272l75 277l-91 -8l62 231l88 -1l12 45q24 91 106 140.5t200 49.5q77 0 151 -24l-63 -172q-30 13 -65 13q-74 0 -81 -25l-8 -27l533 1l-133 -497q-27 -100 -100.5 -158t-200.5 -58z
M734 528q-67 0 -100 28t-20 74q12 46 59.5 74t115.5 28q67 0 100 -28t20 -74q-12 -46 -60 -74t-115 -28z" />
    <glyph glyph-name="f_t" horiz-adv-x="946" 
d="M617 -15q-60 0 -102 10t-65 25.5t-33.5 39t-10.5 47.5t8 53l29 109h-151l-60 -269h-272l75 277l-91 -8l62 231h88l12 44q24 91 106 140.5t200 49.5q77 0 151 -24l-63 -172q-30 13 -65 13q-74 0 -81 -25l-7 -26h99q88 0 139 48t75 136h155l-50 -184h170l-62 -231h-169
l-4 -13q-5 -18 12 -28.5t54 -10.5q35 0 92 17l-42 -213q-99 -36 -199 -36z" />
    <glyph glyph-name="l_s" horiz-adv-x="952" 
d="M134 0h-246l188 700h290zM472 -15q-59 0 -147.5 10t-140.5 23l61 229q55 -24 128.5 -38.5t131.5 -14.5q60 0 86.5 4t26.5 18q0 10 -35.5 14t-86 7t-101 10.5t-86 31.5t-35.5 64q0 45 32.5 79t86 53.5t116 29.5t129.5 10q131 0 243 -31l-55 -209q-80 45 -215 45
q-102 0 -102 -20q0 -8 35.5 -11.5t85.5 -8t100.5 -14t86 -35t35.5 -64.5q0 -47 -34 -83.5t-90.5 -57.5t-121.5 -31t-134 -10z" />
    <glyph glyph-name="s_t" horiz-adv-x="1132" 
d="M808 -15q-73 0 -121 14.5t-66 39t-23 56t7 65.5l30 109h-91l62 231q194 0 245 184h155l-49 -184h164l-62 -231h-164l-3 -13q-5 -18 11.5 -28.5t54.5 -10.5q37 0 93 17l-39 -213q-99 -36 -204 -36zM167 -15q-59 0 -147.5 10t-140.5 23l61 229q55 -24 128.5 -38.5
t130.5 -14.5q61 0 87.5 4t26.5 18q0 10 -35.5 14t-86 7t-101 10.5t-86 31.5t-35.5 64q0 59 56.5 99t136 56.5t171.5 16.5q131 0 242 -31l-54 -209q-33 19 -91.5 32t-123.5 13q-102 0 -102 -20q0 -8 35.5 -11.5t86 -8t100.5 -14t85.5 -35t35.5 -64.5q0 -47 -34 -83.5
t-90.5 -57.5t-121.5 -31t-134 -10z" />
    <glyph glyph-name="t_f" horiz-adv-x="999" 
d="M215 -15q-73 0 -121 14.5t-66 39t-23 56t7 65.5l30 109h-98l61 231q202 0 253 184h155l-49 -184h189l12 44q24 91 106 140.5t201 49.5q76 0 151 -24l-63 -172q-32 13 -66 13q-36 0 -57 -6t-26 -27l-5 -19l181 1l-62 -231l-171 8l-63 -277h-271l72 269h-190l-3 -13
q-6 -19 7.5 -29t50.5 -10q27 0 83 17l-42 -213q-97 -36 -183 -36z" />
    <glyph glyph-name="exclamdown.cap" horiz-adv-x="382" 
d="M186 480q-60 0 -88 30.5t-15 84.5q14 53 59 84t106 31q60 0 88 -30.5t14 -83.5q-14 -54 -59 -85t-105 -31zM200 -1h-285l159 432l204 1z" />
    <glyph glyph-name="questiondown.cap" horiz-adv-x="641" 
d="M332 480q-61 0 -89 31t-13 84q14 53 58.5 84t105.5 31q61 -1 89 -31.5t14 -83.5q-15 -53 -59.5 -84t-105.5 -31zM221 -12q-160 0 -243 52.5t-58 141.5q21 78 87 121.5t183 61.5l30 67h199l-12 -150h-25q-107 0 -152 -17.5t-55 -52.5q-6 -26 20 -43t76 -17
q58 0 124.5 10.5t99 19t45.5 13.5l-46 -169q-9 -4 -40 -12t-98 -17t-135 -9z" />
    <glyph glyph-name="periodcentered.cap" horiz-adv-x="303" 
d="M116 365q-61 0 -91.5 32t-15.5 88q15 55 62.5 87t108.5 32t91 -32t15 -88q-15 -55 -62 -87t-108 -32z" />
    <glyph glyph-name="slash.frac" horiz-adv-x="575" 
d="M98 -2h-232l530 701h233z" />
    <glyph glyph-name="parenleft.cap" horiz-adv-x="419" 
d="M314 109l-128 -144q-127 57 -176.5 167.5t-9.5 261.5q41 151 150 261.5t265 166.5l51 -145q-163 -94 -215 -284q-51 -188 63 -284z" />
    <glyph glyph-name="parenright.cap" horiz-adv-x="418" 
d="M-55 -35l-50 144q164 96 215 284t-63 284l129 145q127 -56 176.5 -166.5t8.5 -261.5t-149.5 -261.5t-266.5 -167.5z" />
    <glyph glyph-name="braceleft.cap" horiz-adv-x="419" 
d="M308 89l-44 -168q-171 0 -229.5 40.5t-30.5 144.5l18 66q15 55 -11 74.5t-85 19.5l38 139q59 0 95 19.5t51 74.5l17 66q27 104 107.5 144.5t251.5 40.5l-45 -168q-62 0 -95 -20t-45 -69l-14 -53q-11 -39 -44.5 -68.5t-74.5 -30.5l-3 -11q41 -1 58.5 -30.5t6.5 -68.5
l-14 -53q-13 -50 9.5 -69.5t82.5 -19.5z" />
    <glyph glyph-name="braceright.cap" horiz-adv-x="419" 
d="M-156 -79l44 168q61 0 94 19.5t47 69.5l14 53q11 39 44.5 68.5t74.5 30.5l3 11q-41 1 -58.5 30.5t-6.5 68.5l14 53q12 49 -10 69t-83 20l45 168q170 0 228.5 -40.5t31.5 -144.5l-18 -66q-15 -55 11 -74.5t85 -19.5l-38 -139q-59 0 -95 -19.5t-51 -74.5l-17 -66
q-28 -104 -108 -144.5t-251 -40.5z" />
    <glyph glyph-name="bracketleft.cap" horiz-adv-x="381" 
d="M252 13h-363l198 737h363l-48 -178h-123l-102 -380h124z" />
    <glyph glyph-name="bracketright.cap" horiz-adv-x="381" 
d="M230 13h-363l49 179h123l102 380h-124l48 178h363z" />
    <glyph glyph-name="hyphen.cap" horiz-adv-x="513" 
d="M444 292h-486l45 169h486z" />
    <glyph glyph-name="endash.cap" horiz-adv-x="648" 
d="M567 246h-622l44 163h622z" />
    <glyph glyph-name="guillemotleft.cap" horiz-adv-x="669" 
d="M278 126h-199l-105 250l239 250h199l-243 -250zM562 126h-199l-105 250l239 250h199l-243 -250z" />
    <glyph glyph-name="guillemotright.cap" horiz-adv-x="669" 
d="M112 126h-199l242 250l-108 250h199l104 -250zM384 126h-199l243 250l-109 250h199l105 -250z" />
    <glyph glyph-name="guilsinglleft.cap" horiz-adv-x="397" 
d="M284 126h-199l-105 250l239 250h199l-243 -250z" />
    <glyph glyph-name="guilsinglright.cap" horiz-adv-x="397" 
d="M112 126h-199l243 250l-109 250h199l105 -250z" />
    <glyph glyph-name="uni0E3F" horiz-adv-x="763" 
d="M285 -102h-185l27 102h-209l188 700h209l27 102h185l-27 -102h33q106 0 158 -52t30 -132q-13 -50 -62.5 -89.5t-104.5 -47.5l-4 -10q63 -8 99.5 -58.5t19.5 -113.5q-23 -86 -110 -141.5t-198 -55.5h-49zM262 464l-19 -73h149q33 0 57 10.5t28 26.5t-14.5 26t-51.5 10
h-149zM221 310l-19 -73h184q33 0 56 10t27 26t-13.5 26.5t-50.5 10.5h-184z" />
    <glyph glyph-name="percent.oldstyle" horiz-adv-x="1018" 
d="M166 307q-86 0 -128 57t-19 145q24 89 96.5 145.5t159.5 56.5t129 -56.5t18 -145.5q-23 -88 -96 -145t-160 -57zM271 0h-186l582 700h185zM201 434q28 0 52.5 21t33.5 54q10 34 -3.5 54.5t-42.5 20.5t-53.5 -20.5t-34.5 -54.5q-9 -33 5 -54t43 -21zM663 -11
q-87 0 -128.5 56.5t-18.5 145.5q23 88 96 145t160 57q86 0 128 -57t19 -145q-24 -89 -96.5 -145.5t-159.5 -56.5zM698 116q29 0 53 20.5t34 54.5q9 33 -4.5 54t-42.5 21t-53.5 -20.5t-33.5 -54.5q-10 -34 4 -54.5t43 -20.5z" />
    <glyph glyph-name="at.cap" horiz-adv-x="1049" 
d="M349 -29q-224 0 -319.5 111t-26.5 311q70 203 245.5 322t402.5 119q221 0 317 -110.5t29 -300.5q-84 -245 -308 -245q-142 0 -162 80q-36 -34 -86 -56t-100 -22q-96 0 -135 55.5t-6 151.5q37 107 123 174t186 67q46 0 78.5 -21.5t42.5 -55.5l26 56h195l-96 -246
q-17 -35 -12 -64.5t48 -29.5q79 0 128 157q55 157 -22 247.5t-272 90.5q-197 0 -340.5 -99t-203.5 -271q-57 -165 21 -257t273 -92q77 0 157 14.5t131 36.5l-23 -78q-123 -45 -291 -45zM453 317q38 0 76 30t52 69q12 34 -7 53t-56 19q-38 0 -73.5 -29.5t-49.5 -68.5
q-12 -34 5 -53.5t53 -19.5z" />
    <glyph glyph-name="registered.ss01" horiz-adv-x="896" 
d="M309 -17q-193 0 -277.5 102t-42.5 262q42 159 183.5 262.5t333.5 103.5t276.5 -102.5t42.5 -261.5q-42 -160 -183 -263t-333 -103zM330 59q157 0 266.5 82.5t142.5 207.5q34 125 -31 206.5t-222 81.5t-267 -82.5t-144 -207.5t32 -206.5t223 -81.5zM299 168h-135l104 386
h237q87 0 127.5 -34.5t22.5 -101.5q-23 -81 -112 -115l59 -135h-157l-36 114h-79zM376 452l-23 -83h99q56 0 68 42q5 21 -6.5 31t-37.5 10h-100z" />
    </font>
</defs>
</svg>
